<?xml version="1.0" encoding="UTF-8"?>
<svg width="300px" height="294px" viewBox="0 0 300 294" version="1.1" xmlns="http://www.w3.org/2000/svg" xmlns:xlink="http://www.w3.org/1999/xlink">
    <title>Logo</title>
    <g id="Page-1" stroke="none" stroke-width="1" fill="none" fill-rule="evenodd">
        <g id="Challange" transform="translate(-912, -29)">
            <g id="Logo" transform="translate(912, 29)">
                <circle id="Oval" fill="#FFFFFF" cx="152.247191" cy="147.752809" r="144.382022"></circle>
                <g id="5cd6d7ed-ea5c-4a70-ad05-47820120e374" fill="#000000" fill-rule="nonzero">
                    <path d="M58.2662269,153.166822 L50.310559,153.166822 L50.310559,168.109926 L58.2662269,168.109926 C62.0342312,168.109926 65.2173913,164.738498 65.2173913,160.638374 C65.2173913,156.625694 62.0342312,153.166822 58.2662269,153.166822 Z" id="Path"></path>
                    <path d="M170.99151,127.016389 L163.975155,127.016389 L163.975155,145.695269 L170.99151,145.695269 C174.847934,145.695269 178.881988,142.345953 178.881988,136.311238 C178.877313,130.549026 174.847934,127.016389 170.99151,127.016389 Z" id="Path"></path>
                    <path d="M150,0 C67.1538025,0 0,65.646884 0,146.629213 C0,227.611543 67.158532,293.258427 150,293.258427 C232.841468,293.258427 300,227.611543 300,146.629213 C300,65.646884 232.841468,0 150,0 Z M61.6061294,178.06735 L37.2115021,178.06735 L37.2115021,117.668049 L57.9691638,117.668049 C68.25577,117.668049 74.82028,124.506957 74.82028,132.766691 C74.82028,138.895186 72.1575861,143.512869 67.6362089,145.554122 C74.3757094,147.150183 79.8760878,152.568265 79.8760878,160.742749 C79.8760878,171.138457 73.1365872,178.06735 61.6061294,178.06735 Z M119.78812,149.200908 L119.78812,178.06735 L106.484109,178.06735 L106.484109,178.06735 L106.484109,149.200908 L84.2224745,117.668049 L100.099319,117.668049 L113.138479,138.539979 L126.177639,117.668049 L142.054484,117.668049 L119.78812,149.200908 Z M179.398411,178.06735 L165.030269,156.485008 L164.940409,156.485008 L164.940409,156.485008 L164.940409,178.06735 L151.636398,178.06735 L151.636398,117.668049 L161.658154,117.668049 L164.945138,117.668049 L174.257473,117.668049 C184.014378,117.668049 192.707151,125.572576 192.707151,137.029168 C192.707151,147.244905 186.587212,153.993827 178.95857,155.859845 L196.254257,178.062614 L179.398411,178.062614 L179.398411,178.06735 Z M236.426409,178.953 C219.755013,178.953 205.382142,164.56477 205.382142,147.865332 C205.382142,131.165894 219.750284,116.777665 236.426409,116.777665 C253.102535,116.777665 267.470677,131.165894 267.470677,147.865332 C267.470677,164.56477 253.102535,178.957735 236.426409,178.953 Z" id="Shape"></path>
                    <path d="M61.4906832,134.490463 C61.4906832,130.329794 58.4192205,127.016389 54.7471162,127.016389 L50.310559,127.016389 L50.310559,141.959493 L54.7471162,141.959493 C58.4192205,141.959493 61.4906832,138.55531 61.4906832,134.490463 Z" id="Path"></path>
                    <path d="M235.714286,130.752165 C226.422105,130.752165 218.012422,139.156295 218.012422,148.452273 C218.012422,157.748251 226.422105,166.242038 235.714286,166.242038 C245.006466,166.242038 253.416149,157.743532 253.416149,148.452273 C253.416149,139.156295 245.006466,130.752165 235.714286,130.752165 Z" id="Path"></path>
                </g>
            </g>
        </g>
    </g>
</svg>