<?xml version="1.0" encoding="UTF-8"?>
<svg width="564px" height="271px" viewBox="0 0 564 271" version="1.1" xmlns="http://www.w3.org/2000/svg" xmlns:xlink="http://www.w3.org/1999/xlink">
    <title>Logo</title>
    <g id="Page-1" stroke="none" stroke-width="1" fill="none" fill-rule="evenodd">
        <g id="Logo" fill="#FFFFFF" fill-rule="nonzero">
            <g id="PROMPT" transform="translate(95.3123, 0)">
                <path d="M34.5352636,1.89368771 L0,1.89368771 L0,72.9069767 L24.1849323,72.9069767 L24.1849323,55.4579972 L34.5352636,55.4579972 C54.5185763,55.4579972 67.2259136,45.1103465 67.2259136,28.6758424 C67.2259136,12.2413384 54.5185763,1.89368771 34.5352636,1.89368771 Z M32.9980856,36.994542 L24.1849323,36.994542 L24.1849323,20.3571429 L32.9980856,20.3571429 C39.6591899,20.3571429 42.8360242,23.5020171 42.8360242,28.6758424 C42.8360242,33.8496678 39.6591899,36.994542 32.9980856,36.994542 Z" id="Shape"></path>
                <path d="M117.370538,72.9069767 L142.973422,72.9069767 L128.038407,50.9943047 C136.572701,46.6320598 141.449441,38.9220456 141.449441,28.6758424 C141.449441,12.2413384 128.851196,1.89368771 109.039441,1.89368771 L74.8006645,1.89368771 L74.8006645,72.9069767 L98.7779681,72.9069767 L98.7779681,55.0522069 L105.280288,55.0522069 L117.370538,72.9069767 Z M117.26894,28.6758424 C117.26894,33.8496678 114.119379,36.994542 107.51546,36.994542 L98.7779681,36.994542 L98.7779681,20.3571429 L107.51546,20.3571429 C114.119379,20.3571429 117.26894,23.5020171 117.26894,28.6758424 Z" id="Shape"></path>
                <path d="M188.895349,74.8006645 C212.122987,74.8006645 229.136213,59.0639126 229.136213,37.4003322 C229.136213,15.7367518 212.122987,0 188.895349,0 C165.667711,0 148.654485,15.7367518 148.654485,37.4003322 C148.654485,59.0639126 165.667711,74.8006645 188.895349,74.8006645 Z M188.895349,55.2830047 C180.032171,55.2830047 172.900879,48.5386825 172.900879,37.4003322 C172.900879,26.2619819 180.032171,19.5176597 188.895349,19.5176597 C197.758526,19.5176597 204.889819,26.2619819 204.889819,37.4003322 C204.889819,48.5386825 197.758526,55.2830047 188.895349,55.2830047 Z" id="Shape"></path>
                <polygon id="Path" points="322.873754 72.9069767 322.670859 1.89368771 302.990033 1.89368771 280.468676 39.733626 257.338633 1.89368771 237.657807 1.89368771 237.657807 72.9069767 259.469032 72.9069767 259.469032 41.6611296 274.88906 66.5157807 285.439606 66.5157807 300.859635 40.5452065 301.06253 72.9069767"></polygon>
                <path d="M369.717988,1.89368771 L335.182724,1.89368771 L335.182724,72.9069767 L359.367657,72.9069767 L359.367657,55.4579972 L369.717988,55.4579972 C389.701301,55.4579972 402.408638,45.1103465 402.408638,28.6758424 C402.408638,12.2413384 389.701301,1.89368771 369.717988,1.89368771 Z M368.18081,36.994542 L359.367657,36.994542 L359.367657,20.3571429 L368.18081,20.3571429 C374.841914,20.3571429 378.018748,23.5020171 378.018748,28.6758424 C378.018748,33.8496678 374.841914,36.994542 368.18081,36.994542 Z" id="Shape"></path>
                <polygon id="Path" points="423.44147 72.9069767 447.654876 72.9069767 447.654876 20.4585904 468.687708 20.4585904 468.687708 1.89368771 402.408638 1.89368771 402.408638 20.4585904 423.44147 20.4585904"></polygon>
            </g>
            <g id="AARGAU" transform="translate(19.4053, 195.9967)">
                <path d="M61.2531687,72.9069767 L86.1627907,72.9069767 L54.9236746,1.89368771 L31.2391161,1.89368771 L0,72.9069767 L24.5012675,72.9069767 L29.2994324,60.5303749 L56.4550039,60.5303749 L61.2531687,72.9069767 Z M35.9351923,43.2842905 L42.8772181,25.4295206 L49.8192439,43.2842905 L35.9351923,43.2842905 Z" id="Shape"></path>
                <path d="M147.415959,72.9069767 L172.325581,72.9069767 L141.086465,1.89368771 L117.401907,1.89368771 L86.1627907,72.9069767 L110.664058,72.9069767 L115.462223,60.5303749 L142.617795,60.5303749 L147.415959,72.9069767 Z M122.097983,43.2842905 L129.040009,25.4295206 L135.982035,43.2842905 L122.097983,43.2842905 Z" id="Shape"></path>
                <path d="M218.682831,72.9069767 L244.285714,72.9069767 L229.350699,50.9943047 C237.884993,46.6320598 242.761733,38.9220456 242.761733,28.6758424 C242.761733,12.2413384 230.163489,1.89368771 210.351734,1.89368771 L176.112957,1.89368771 L176.112957,72.9069767 L200.09026,72.9069767 L200.09026,55.0522069 L206.59258,55.0522069 L218.682831,72.9069767 Z M218.581232,28.6758424 C218.581232,33.8496678 215.431671,36.994542 208.827752,36.994542 L200.09026,36.994542 L200.09026,20.3571429 L208.827752,20.3571429 C215.431671,20.3571429 218.581232,23.5020171 218.581232,28.6758424 Z" id="Shape"></path>
                <path d="M299.016198,53.5458308 C296.063262,54.7720712 293.212151,55.2830047 290.259215,55.2830047 C279.974851,55.2830047 273.254376,48.1299357 273.254376,37.4003322 C273.254376,26.3641686 279.974851,19.5176597 290.564691,19.5176597 C296.877865,19.5176597 302.07096,22.1745139 306.551277,27.3860356 L321.92691,13.7952045 C314.697308,4.9049616 303.39469,0 289.342787,0 C265.821122,0 249.019934,15.4301917 249.019934,37.4003322 C249.019934,59.3704727 265.821122,74.8006645 288.83366,74.8006645 C299.321674,74.8006645 311.235245,71.6328767 319.890403,65.7060481 L319.890403,35.4587849 L299.016198,35.4587849 L299.016198,53.5458308 Z" id="Path"></path>
                <path d="M384.126923,72.9069767 L409.036545,72.9069767 L377.797429,1.89368771 L354.11287,1.89368771 L322.873754,72.9069767 L347.375022,72.9069767 L352.173187,60.5303749 L379.328758,60.5303749 L384.126923,72.9069767 Z M358.808946,43.2842905 L365.750972,25.4295206 L372.692998,43.2842905 L358.808946,43.2842905 Z" id="Shape"></path>
                <path d="M445.490033,74.8006645 C467.279937,74.8006645 480.049834,62.4797927 480.049834,41.0964615 L480.049834,1.89368771 L456.537008,1.89368771 L456.537008,40.3836838 C456.537008,51.2790002 452.381724,55.3520156 445.69273,55.3520156 C439.003736,55.3520156 434.848452,51.2790002 434.848452,40.3836838 L434.848452,1.89368771 L410.930233,1.89368771 L410.930233,41.0964615 C410.930233,62.4797927 423.70013,74.8006645 445.490033,74.8006645 Z" id="Path"></path>
            </g>
            <g id="BATTLE" transform="translate(0, 99.4186)">
                <path d="M56.8655207,33.8834836 C63.3644374,30.6371618 66.7154413,25.1589938 66.7154413,18.5649027 C66.7154413,7.81146179 57.5763397,0 37.9780442,0 L0,0 L0,71.013289 L40.0089557,71.013289 C59.6072512,71.013289 70.0664452,63.8105126 70.0664452,51.4339108 C70.0664452,43.0137636 65.1922577,36.9269103 56.8655207,33.8834836 Z M34.7285859,16.7388467 C40.1105012,16.7388467 42.547595,18.5649027 42.547595,22.0141196 C42.547595,25.4633365 40.1105012,27.2893925 34.7285859,27.2893925 L23.5585729,27.2893925 L23.5585729,16.7388467 L34.7285859,16.7388467 Z M37.9780442,54.2744423 L23.5585729,54.2744423 L23.5585729,43.1152112 L37.9780442,43.1152112 C43.258414,43.1152112 45.8985989,45.0427148 45.8985989,48.6948268 C45.8985989,52.3469388 43.258414,54.2744423 37.9780442,54.2744423 Z" id="Shape"></path>
                <path d="M132.266458,71.013289 L157.17608,71.013289 L125.936964,0 L102.252405,0 L71.013289,71.013289 L95.5145565,71.013289 L100.312721,58.6366872 L127.468293,58.6366872 L132.266458,71.013289 Z M106.948481,41.3906028 L113.890507,23.5358329 L120.832533,41.3906028 L106.948481,41.3906028 Z" id="Shape"></path>
                <polygon id="Path" points="173.474692 71.013289 197.688098 71.013289 197.688098 18.5649027 218.72093 18.5649027 218.72093 0 152.44186 0 152.44186 18.5649027 173.474692 18.5649027"></polygon>
                <polygon id="Path" points="243.541137 71.013289 267.754544 71.013289 267.754544 18.5649027 288.787375 18.5649027 288.787375 0 222.508306 0 222.508306 18.5649027 243.541137 18.5649027"></polygon>
                <polygon id="Path" points="297.30897 71.013289 353.172757 71.013289 353.172757 52.4483863 321.192763 52.4483863 321.192763 0 297.30897 0"></polygon>
                <polygon id="Path" points="384.525979 52.9556241 384.525979 43.622449 414.864027 43.622449 414.864027 26.3763645 384.525979 26.3763645 384.525979 18.0576649 419.066257 18.0576649 419.066257 0 360.747508 0 360.747508 71.013289 420.398671 71.013289 420.398671 52.9556241"></polygon>
            </g>
        </g>
    </g>
</svg>