<?xml version="1.0" encoding="UTF-8"?>
<svg width="475px" height="148px" viewBox="0 0 475 148" version="1.1" xmlns="http://www.w3.org/2000/svg" xmlns:xlink="http://www.w3.org/1999/xlink">
    <title>Group 457</title>
    <g id="Page-1" stroke="none" stroke-width="1" fill="none" fill-rule="evenodd">
        <g id="Artboard" transform="translate(-147, -113)">
            <g id="Group-457" transform="translate(147, 113)">
                <polygon id="Fill-1" fill="#FFFFFF" points="105.572 18.078 117.256 18.078 117.256 14.087 105.572 14.087"></polygon>
                <polygon id="Fill-2" fill="#FFFFFF" points="131.917 30.339 126.388 30.339 126.388 20.723 119.322 0.001 124.948 0.001 129.08 15.578 132.977 0.001 138.6 0.001 131.917 20.579"></polygon>
                <path d="M151.676,24.81 L151.676,5.53 C151.676,5.017 151.582,4.673 151.39,4.495 C151.199,4.321 150.843,4.231 150.33,4.231 L147.783,4.231 C147.239,4.231 146.871,4.321 146.679,4.495 C146.484,4.673 146.39,5.017 146.39,5.53 L146.39,24.81 C146.39,25.323 146.484,25.667 146.679,25.843 C146.871,26.019 147.239,26.107 147.783,26.107 L150.33,26.107 C150.843,26.107 151.199,26.019 151.39,25.843 C151.582,25.667 151.676,25.323 151.676,24.81 M146.1,0.001 L151.966,0.001 C155.46,0.001 157.209,1.587 157.209,4.761 L157.209,25.579 C157.209,28.752 155.46,30.339 151.966,30.339 L146.1,30.339 C142.606,30.339 140.861,28.752 140.861,25.579 L140.861,4.761 C140.861,1.587 142.606,0.001 146.1,0.001" id="Fill-3" fill="#FFFFFF"></path>
                <path d="M172.446,0.001 L177.975,0.001 L177.975,25.579 C177.975,28.752 176.23,30.339 172.736,30.339 L166.87,30.339 C163.376,30.339 161.631,28.752 161.631,25.579 L161.631,0.001 L167.16,0.001 L167.16,24.81 C167.16,25.323 167.254,25.667 167.445,25.843 C167.641,26.019 167.993,26.107 168.506,26.107 L171.053,26.107 C171.597,26.107 171.965,26.019 172.16,25.843 C172.352,25.667 172.446,25.323 172.446,24.81 L172.446,0.001 Z" id="Fill-4" fill="#FFFFFF"></path>
                <polygon id="Fill-5" fill="#FFFFFF" points="194.275 0.001 199.323 0.001 199.323 30.339 194.13 30.339 187.639 10.241 187.639 30.339 182.544 30.339 182.544 0.001 187.881 0.001 194.275 19.81"></polygon>
                <path d="M219.853,9.327 L214.273,9.327 L214.273,5.336 C214.273,4.825 214.179,4.479 213.988,4.303 C213.796,4.127 213.44,4.039 212.927,4.039 L210.67,4.039 C210.157,4.039 209.805,4.127 209.613,4.303 C209.418,4.479 209.324,4.825 209.324,5.336 L209.324,25.051 C209.324,25.563 209.418,25.908 209.613,26.084 C209.805,26.26 210.157,26.348 210.67,26.348 L212.927,26.348 C213.44,26.348 213.796,26.26 213.988,26.084 C214.179,25.908 214.273,25.563 214.273,25.051 L214.273,18.319 L211.871,18.319 L211.871,14.423 L219.853,14.423 L219.853,25.628 C219.853,28.801 218.104,30.388 214.61,30.388 L208.987,30.388 C205.493,30.388 203.744,28.801 203.744,25.628 L203.744,4.761 C203.744,1.587 205.493,0.001 208.987,0.001 L214.61,0.001 C218.104,0.001 219.853,1.587 219.853,4.761 L219.853,9.327 Z" id="Fill-6" fill="#FFFFFF"></path>
                <polygon id="Fill-7" fill="#FFFFFF" points="245.815 0.001 245.815 4.231 240.478 4.231 240.478 30.339 234.949 30.339 234.949 4.231 229.659 4.231 229.659 0.001"></polygon>
                <path d="M253.75,19.856 L258.895,19.856 L256.25,5.336 L253.75,19.856 Z M260.817,30.338 L259.666,24.041 L253.03,24.041 L251.97,30.338 L246.441,30.338 L252.549,0 L260.003,0 L266.396,30.338 L260.817,30.338 Z" id="Fill-8" fill="#FFFFFF"></path>
                <polygon id="Fill-9" fill="#FFFFFF" points="274.617 26.107 282.693 26.107 282.693 30.339 269.088 30.339 269.088 0.001 274.617 0.001"></polygon>
                <polygon id="Fill-10" fill="#FFFFFF" points="290.722 26.107 299.956 26.107 299.956 30.339 285.146 30.339 285.146 0.001 299.569 0.001 299.569 4.23 290.722 4.23 290.722 12.645 298.176 12.645 298.176 16.924 290.722 16.924"></polygon>
                <polygon id="Fill-11" fill="#FFFFFF" points="314.86 0.001 319.908 0.001 319.908 30.339 314.715 30.339 308.224 10.241 308.224 30.339 303.129 30.339 303.129 0.001 308.466 0.001 314.86 19.81"></polygon>
                <polygon id="Fill-12" fill="#FFFFFF" points="338.658 0.001 338.658 4.231 333.321 4.231 333.321 30.339 327.792 30.339 327.792 4.231 322.502 4.231 322.502 0.001"></polygon>
                <path d="M350.823,24.81 L350.823,18.319 C350.823,17.806 350.729,17.462 350.537,17.286 C350.346,17.11 349.99,17.02 349.477,17.02 L345.584,17.02 C342.281,17.02 340.63,15.417 340.63,12.213 L340.63,4.761 C340.63,1.587 342.363,0.001 345.822,0.001 L351.113,0.001 C354.575,0.001 356.305,1.587 356.305,4.761 L356.305,8.991 L350.729,8.991 L350.729,5.53 C350.729,5.017 350.631,4.673 350.44,4.495 C350.248,4.321 349.896,4.231 349.383,4.231 L347.556,4.231 C347.008,4.231 346.64,4.321 346.448,4.495 C346.257,4.673 346.159,5.017 346.159,5.53 L346.159,11.636 C346.159,12.148 346.257,12.492 346.448,12.669 C346.64,12.847 347.008,12.933 347.556,12.933 L351.355,12.933 C354.72,12.933 356.403,14.504 356.403,17.646 L356.403,25.579 C356.403,28.752 354.654,30.339 351.159,30.339 L345.967,30.339 C342.473,30.339 340.728,28.752 340.728,25.579 L340.728,21.396 L346.257,21.396 L346.257,24.81 C346.257,25.323 346.355,25.667 346.546,25.843 C346.738,26.019 347.106,26.107 347.65,26.107 L349.477,26.107 C349.99,26.107 350.346,26.019 350.537,25.843 C350.729,25.667 350.823,25.323 350.823,24.81" id="Fill-13" fill="#FFFFFF"></path>
                <polygon id="Fill-14" fill="#FFFFFF" points="361.935 18.078 373.619 18.078 373.619 14.087 361.935 14.087"></polygon>
                <polygon id="Fill-15" fill="#FF008A" points="52.2873 73.4912 38.2603 73.4912 38.2603 90.0092 22.4183 90.0092 22.4183 73.4912 8.4023 73.4912 8.4023 92.0522 52.2873 92.0522"></polygon>
                <polygon id="Fill-16" fill="#FF008A" points="38.261 142.6468 52.288 142.6468 52.288 128.1988 38.261 128.1988"></polygon>
                <polygon id="Fill-17" fill="#FF008A" points="38.261 147.2378 52.288 147.2378 52.288 143.7698 38.261 143.7698"></polygon>
                <polygon id="Fill-18" fill="#FF008A" points="8.402 72.0908 22.419 72.0908 22.419 66.1218 8.402 66.1218"></polygon>
                <polygon id="Fill-19" fill="#FF008A" points="38.26 72.0908 52.287 72.0908 52.287 66.1218 38.26 66.1218"></polygon>
                <polygon id="Fill-20" fill="#FF008A" points="38.26 123.7998 52.287 123.7998 52.287 105.0648 38.26 105.0648"></polygon>
                <polygon id="Fill-21" fill="#FF008A" points="38.26 127.6378 52.287 127.6378 52.287 125.9938 38.26 125.9938"></polygon>
                <polygon id="Fill-22" fill="#FF008A" points="8.402 147.2378 22.419 147.2378 22.419 143.7698 8.402 143.7698"></polygon>
                <polygon id="Fill-23" fill="#FF008A" points="38.26 65.4208 52.287 65.4208 52.287 61.3668 38.26 61.3668"></polygon>
                <polygon id="Fill-24" fill="#FF008A" points="8.402 123.7998 22.419 123.7998 22.419 105.0648 8.402 105.0648"></polygon>
                <polygon id="Fill-25" fill="#FF008A" points="8.402 142.6468 22.419 142.6468 22.419 128.1988 8.402 128.1988"></polygon>
                <polygon id="Fill-26" fill="#FF008A" points="8.402 127.6378 22.419 127.6378 22.419 125.9938 8.402 125.9938"></polygon>
                <polygon id="Fill-27" fill="#FF008A" points="22.4187 100.7372 38.2607 100.7372 38.2607 104.3642 52.2877 104.3642 52.2877 95.2892 8.4017 95.2892 8.4017 104.3642 22.4187 104.3642"></polygon>
                <polygon id="Fill-28" fill="#FF008A" points="8.402 65.4208 22.419 65.4208 22.419 61.3668 8.402 61.3668"></polygon>
                <polygon id="Fill-29" fill="#FF008A" points="86.9596 95.2887 88.2886 104.3637 101.601 104.3637 99.8876 95.2887"></polygon>
                <polygon id="Fill-30" fill="#FF008A" points="59.1022 147.2383 73.1192 147.2383 73.7032 143.7703 59.7282 143.7703"></polygon>
                <polygon id="Fill-31" fill="#FF008A" points="95.5477 147.2383 109.694 147.2383 109.039 143.7703 94.9137 143.7703"></polygon>
                <polygon id="Fill-32" fill="#FF008A" points="93.4843 61.3667 74.5873 61.3667 73.8563 65.4207 94.2493 65.4207"></polygon>
                <polygon id="Fill-33" fill="#FF008A" points="81.1465 95.2887 68.4705 95.2887 66.8335 104.3637 79.8895 104.3637"></polygon>
                <polygon id="Fill-34" fill="#FF008A" points="105.269 123.7996 101.733 105.0646 88.3921 105.0646 90.6771 120.6626 77.6321 120.6626 79.7921 105.0646 66.7071 105.0646 63.3291 123.7996"></polygon>
                <polygon id="Fill-35" fill="#FF008A" points="95.5086 72.09 94.3816 66.121 73.7296 66.121 72.6536 72.09"></polygon>
                <polygon id="Fill-36" fill="#FF008A" points="62.9331 125.9937 62.6371 127.6377 105.993 127.6377 105.683 125.9937"></polygon>
                <polygon id="Fill-37" fill="#FF008A" points="83.9712 74.8923 86.4852 92.0523 99.2762 92.0523 95.7722 73.4913 72.4012 73.4913 69.0532 92.0523 81.5952 92.0523"></polygon>
                <polygon id="Fill-38" fill="#FF008A" points="62.5357 128.199 59.9297 142.647 73.8917 142.647 75.8067 131.272 92.6317 131.272 94.7087 142.647 108.827 142.647 106.1 128.199"></polygon>
                <path d="M130.049,92.0524 L130.049,74.8924 C130.049,74.3354 130.115,73.8934 130.205,73.4914 L115.903,73.4914 L115.903,92.0524 L130.049,92.0524 Z" id="Fill-39" fill="#FF008A"></path>
                <path d="M131.161,72.09 C131.68,71.792 132.399,71.604 133.461,71.604 L139.185,71.604 C140.247,71.604 140.973,71.792 141.494,72.09 L156.532,72.09 C156.351,69.671 155.663,67.711 154.567,66.121 L118.079,66.121 C116.983,67.711 116.296,69.671 116.114,72.09 L131.161,72.09 Z" id="Fill-40" fill="#FF008A"></path>
                <path d="M142.597,86.8408 L156.743,86.8408 L156.743,73.4908 L142.442,73.4908 C142.531,73.8928 142.597,74.3348 142.597,74.8928 L142.597,86.8408 Z" id="Fill-41" fill="#FF008A"></path>
                <polygon id="Fill-42" fill="#FF008A" points="115.903 123.7998 130.049 123.7998 130.049 105.0648 115.903 105.0648"></polygon>
                <path d="M143.45,61.3667 L129.195,61.3667 C124.157,61.3667 120.715,62.8177 118.541,65.4207 L154.104,65.4207 C151.93,62.8177 148.489,61.3667 143.45,61.3667" id="Fill-43" fill="#FF008A"></path>
                <path d="M156.743,128.199 L142.597,128.199 L142.597,133.832 C142.597,135.131 142.359,136.004 141.873,136.45 C141.387,136.897 140.484,137.12 139.185,137.12 L133.461,137.12 C132.162,137.12 131.269,136.897 130.783,136.45 C130.287,136.004 130.049,135.131 130.049,133.832 L130.049,128.199 L115.903,128.199 L115.903,135.295 C115.903,138.411 116.774,140.738 118.105,142.647 L154.541,142.647 C155.872,140.738 156.743,138.411 156.743,135.295 L156.743,128.199 Z" id="Fill-44" fill="#FF008A"></path>
                <polygon id="Fill-45" fill="#FF008A" points="115.903 127.6378 130.049 127.6378 130.049 125.9938 115.903 125.9938"></polygon>
                <polygon id="Fill-46" fill="#FF008A" points="115.903 104.3638 130.049 104.3638 130.049 95.2888 115.903 95.2888"></polygon>
                <polygon id="Fill-47" fill="#FF008A" points="142.597 127.6378 156.743 127.6378 156.743 125.9938 142.597 125.9938"></polygon>
                <polygon id="Fill-48" fill="#FF008A" points="142.597 123.7998 156.743 123.7998 156.743 122.1268 142.597 122.1268"></polygon>
                <path d="M129.196,147.3623 L143.451,147.3623 C148.217,147.3623 151.596,146.1003 153.799,143.7703 L118.848,143.7703 C121.051,146.1003 124.43,147.3623 129.196,147.3623" id="Fill-49" fill="#FF008A"></path>
                <polygon id="Fill-50" fill="#FF008A" points="166.613 65.4208 180.63 65.4208 180.63 61.3668 166.613 61.3668"></polygon>
                <polygon id="Fill-51" fill="#FF008A" points="166.613 127.6378 180.63 127.6378 180.63 125.9938 166.613 125.9938"></polygon>
                <polygon id="Fill-52" fill="#FF008A" points="189.672 125.9937 190.198 127.6377 205.115 127.6377 204.573 125.9937"></polygon>
                <polygon id="Fill-53" fill="#FF008A" points="182.748 104.3641 197.428 104.3641 195.867 99.6371 197.667 95.2891 182.981 95.2891 181.235 99.6371"></polygon>
                <polygon id="Fill-54" fill="#FF008A" points="190.378 128.199 195.002 142.647 210.074 142.647 205.302 128.199"></polygon>
                <polygon id="Fill-55" fill="#FF008A" points="166.613 92.0518 180.63 92.0518 180.63 73.4908 166.613 73.4908"></polygon>
                <polygon id="Fill-56" fill="#FF008A" points="166.613 104.3638 180.63 104.3638 180.63 95.2888 166.613 95.2888"></polygon>
                <polygon id="Fill-57" fill="#FF008A" points="166.613 142.6468 180.63 142.6468 180.63 128.1988 166.613 128.1988"></polygon>
                <polygon id="Fill-58" fill="#FF008A" points="166.613 123.7998 180.63 123.7998 180.63 105.0648 166.613 105.0648"></polygon>
                <polygon id="Fill-59" fill="#FF008A" points="182.972 105.0647 188.969 123.7997 203.848 123.7997 197.66 105.0647"></polygon>
                <polygon id="Fill-60" fill="#FF008A" points="166.613 147.2378 180.63 147.2378 180.63 143.7698 166.613 143.7698"></polygon>
                <polygon id="Fill-61" fill="#FF008A" points="196.472 147.2383 211.59 147.2383 210.445 143.7703 195.362 143.7703"></polygon>
                <polygon id="Fill-62" fill="#FF008A" points="199.006 92.0524 206.69 73.4914 191.732 73.4914 184.28 92.0524"></polygon>
                <polygon id="Fill-63" fill="#FF008A" points="211.709 61.3667 196.601 61.3667 194.974 65.4207 210.031 65.4207"></polygon>
                <polygon id="Fill-64" fill="#FF008A" points="207.27 72.09 209.741 66.121 194.692 66.121 192.296 72.09"></polygon>
                <polygon id="Fill-65" fill="#FF008A" points="166.613 72.0908 180.63 72.0908 180.63 66.1218 166.613 66.1218"></polygon>
                <polygon id="Fill-66" fill="#FF008A" points="217.494 125.9937 217.198 127.6377 260.554 127.6377 260.244 125.9937"></polygon>
                <polygon id="Fill-67" fill="#FF008A" points="248.045 61.3667 229.148 61.3667 228.417 65.4207 248.81 65.4207"></polygon>
                <polygon id="Fill-68" fill="#FF008A" points="242.953 105.0647 245.238 120.6627 232.194 120.6627 234.354 105.0647 221.268 105.0647 217.89 123.7997 259.83 123.7997 256.294 105.0647"></polygon>
                <polygon id="Fill-69" fill="#FF008A" points="217.097 128.199 214.491 142.647 228.453 142.647 230.368 131.272 247.193 131.272 249.27 142.647 263.388 142.647 260.661 128.199"></polygon>
                <polygon id="Fill-70" fill="#FF008A" points="256.161 104.3641 254.448 95.2891 241.52 95.2891 242.849 104.3641"></polygon>
                <polygon id="Fill-71" fill="#FF008A" points="234.451 104.3641 235.708 95.2891 223.031 95.2891 221.395 104.3641"></polygon>
                <polygon id="Fill-72" fill="#FF008A" points="250.07 72.09 248.942 66.121 228.291 66.121 227.215 72.09"></polygon>
                <polygon id="Fill-73" fill="#FF008A" points="236.156 92.0524 238.532 74.8924 241.046 92.0524 253.837 92.0524 250.334 73.4914 226.962 73.4914 223.615 92.0524"></polygon>
                <polygon id="Fill-74" fill="#FF008A" points="250.108 147.2383 264.255 147.2383 263.599 143.7703 249.475 143.7703"></polygon>
                <polygon id="Fill-75" fill="#FF008A" points="213.663 147.2383 227.68 147.2383 228.264 143.7703 214.289 143.7703"></polygon>
                <polygon id="Fill-76" fill="#FF008A" points="279.243 147.2378 293.26 147.2378 293.26 143.7698 279.243 143.7698"></polygon>
                <polygon id="Fill-77" fill="#FF008A" points="265.831 72.09 306.79 72.09 306.79 66.121 265.831 66.121"></polygon>
                <polygon id="Fill-78" fill="#FF008A" points="279.243 127.6378 293.26 127.6378 293.26 125.9938 279.243 125.9938"></polygon>
                <polygon id="Fill-79" fill="#FF008A" points="265.831 65.4208 306.79 65.4208 306.79 61.3668 265.831 61.3668"></polygon>
                <polygon id="Fill-80" fill="#FF008A" points="279.243 92.0518 293.26 92.0518 293.26 73.4908 279.243 73.4908"></polygon>
                <polygon id="Fill-81" fill="#FF008A" points="279.243 123.7998 293.26 123.7998 293.26 105.0648 279.243 105.0648"></polygon>
                <polygon id="Fill-82" fill="#FF008A" points="279.243 142.6468 293.26 142.6468 293.26 128.1988 279.243 128.1988"></polygon>
                <polygon id="Fill-83" fill="#FF008A" points="279.243 104.3638 293.26 104.3638 293.26 95.2888 279.243 95.2888"></polygon>
                <polygon id="Fill-84" fill="#FF008A" points="313.258 142.6468 327.275 142.6468 327.275 128.1988 313.258 128.1988"></polygon>
                <polygon id="Fill-85" fill="#FF008A" points="313.258 127.6378 327.275 127.6378 327.275 125.9938 313.258 125.9938"></polygon>
                <polygon id="Fill-86" fill="#FF008A" points="327.275 104.3641 327.275 100.7371 343.117 100.7371 343.117 104.3641 357.144 104.3641 357.144 95.2891 313.258 95.2891 313.258 104.3641"></polygon>
                <polygon id="Fill-87" fill="#FF008A" points="343.117 123.7998 357.144 123.7998 357.144 105.0648 343.117 105.0648"></polygon>
                <polygon id="Fill-88" fill="#FF008A" points="357.144 92.0524 357.144 73.4914 343.117 73.4914 343.117 90.0094 327.274 90.0094 327.274 73.4914 313.259 73.4914 313.259 92.0524"></polygon>
                <polygon id="Fill-89" fill="#FF008A" points="343.116 65.4208 357.143 65.4208 357.143 61.3668 343.116 61.3668"></polygon>
                <polygon id="Fill-90" fill="#FF008A" points="313.258 123.7998 327.275 123.7998 327.275 105.0648 313.258 105.0648"></polygon>
                <polygon id="Fill-91" fill="#FF008A" points="343.117 142.6468 357.144 142.6468 357.144 128.1988 343.117 128.1988"></polygon>
                <polygon id="Fill-92" fill="#FF008A" points="343.117 127.6378 357.144 127.6378 357.144 125.9938 343.117 125.9938"></polygon>
                <polygon id="Fill-93" fill="#FF008A" points="313.258 65.4208 327.275 65.4208 327.275 61.3668 313.258 61.3668"></polygon>
                <polygon id="Fill-94" fill="#FF008A" points="313.258 72.0908 327.275 72.0908 327.275 66.1218 313.258 66.1218"></polygon>
                <polygon id="Fill-95" fill="#FF008A" points="343.117 147.2378 357.144 147.2378 357.144 143.7698 343.117 143.7698"></polygon>
                <polygon id="Fill-96" fill="#FF008A" points="343.116 72.0908 357.143 72.0908 357.143 66.1218 343.116 66.1218"></polygon>
                <polygon id="Fill-97" fill="#FF008A" points="313.258 147.2378 327.275 147.2378 327.275 143.7698 313.258 143.7698"></polygon>
                <polygon id="Fill-98" fill="#FF008A" points="395.771 123.7998 409.798 123.7998 409.798 105.0648 395.771 105.0648"></polygon>
                <polygon id="Fill-99" fill="#FF008A" points="395.771 104.3638 409.798 104.3638 409.798 95.2888 395.771 95.2888"></polygon>
                <path d="M395.771,92.0524 L409.798,92.0524 L409.798,73.4914 L395.447,73.4914 C395.64,73.9734 395.771,74.5614 395.771,75.3834 L395.771,92.0524 Z" id="Fill-100" fill="#FF008A"></path>
                <polygon id="Fill-101" fill="#FF008A" points="368.353 104.3638 382.37 104.3638 382.37 95.2888 368.353 95.2888"></polygon>
                <path d="M381.635,147.2383 L396.505,147.2383 C401.2,147.2383 404.563,146.0293 406.772,143.7703 L371.374,143.7703 C373.58,146.0293 376.941,147.2383 381.635,147.2383" id="Fill-102" fill="#FF008A"></path>
                <path d="M396.505,61.3667 L381.635,61.3667 C376.596,61.3667 373.158,62.8177 370.987,65.4207 L407.159,65.4207 C404.985,62.8177 401.544,61.3667 396.505,61.3667" id="Fill-103" fill="#FF008A"></path>
                <polygon id="Fill-104" fill="#FF008A" points="395.771 127.6378 409.798 127.6378 409.798 125.9938 395.771 125.9938"></polygon>
                <path d="M382.37,92.0524 L382.37,75.3834 C382.37,74.5614 382.501,73.9734 382.697,73.4914 L368.353,73.4914 L368.353,92.0524 L382.37,92.0524 Z" id="Fill-105" fill="#FF008A"></path>
                <path d="M409.798,128.199 L395.771,128.199 L395.771,133.222 C395.771,134.521 395.533,135.394 395.047,135.84 C394.561,136.287 393.658,136.51 392.359,136.51 L385.901,136.51 C384.522,136.51 383.59,136.287 383.104,135.84 C382.608,135.394 382.37,134.521 382.37,133.222 L382.37,128.199 L368.353,128.199 L368.353,135.171 C368.353,138.353 369.248,140.723 370.633,142.647 L407.515,142.647 C408.902,140.723 409.798,138.353 409.798,135.171 L409.798,128.199 Z" id="Fill-106" fill="#FF008A"></path>
                <path d="M368.564,72.09 L409.586,72.09 C409.405,69.671 408.718,67.711 407.622,66.121 L370.525,66.121 C369.431,67.711 368.745,69.671 368.564,72.09 Z" id="Fill-107" fill="#FF008A"></path>
                <polygon id="Fill-108" fill="#FF008A" points="368.353 123.7998 382.37 123.7998 382.37 105.0648 368.353 105.0648"></polygon>
                <polygon id="Fill-109" fill="#FF008A" points="368.353 127.6378 382.37 127.6378 382.37 125.9938 368.353 125.9938"></polygon>
                <polygon id="Fill-110" fill="#FF008A" points="421.126 147.2378 434.042 147.2378 434.042 143.7698 421.126 143.7698"></polygon>
                <polygon id="Fill-111" fill="#FF008A" points="438.722 104.3641 446.435 104.3641 443.949 95.2891 436.23 95.2891"></polygon>
                <polygon id="Fill-112" fill="#FF008A" points="421.126 123.7998 434.042 123.7998 434.042 105.0648 421.126 105.0648"></polygon>
                <polygon id="Fill-113" fill="#FF008A" points="421.126 104.3638 434.042 104.3638 434.042 95.2888 421.126 95.2888"></polygon>
                <polygon id="Fill-114" fill="#FF008A" points="437.594 72.09 435.96 66.121 421.126 66.121 421.126 72.09"></polygon>
                <polygon id="Fill-115" fill="#FF008A" points="421.126 127.6378 434.042 127.6378 434.042 125.9938 421.126 125.9938"></polygon>
                <polygon id="Fill-116" fill="#FF008A" points="450.866 120.544 446.626 105.065 438.914 105.065 444.06 123.8 463.663 123.8 463.663 105.065 450.866 105.065"></polygon>
                <polygon id="Fill-117" fill="#FF008A" points="445.115 127.6373 463.663 127.6373 463.663 125.9933 444.664 125.9933"></polygon>
                <polygon id="Fill-118" fill="#FF008A" points="434.657 61.3667 421.126 61.3667 421.126 65.4207 435.767 65.4207"></polygon>
                <polygon id="Fill-119" fill="#FF008A" points="450.866 65.4208 463.663 65.4208 463.663 61.3668 450.866 61.3668"></polygon>
                <polygon id="Fill-120" fill="#FF008A" points="421.126 142.6468 434.042 142.6468 434.042 128.1988 421.126 128.1988"></polygon>
                <polygon id="Fill-121" fill="#FF008A" points="450.866 72.0898 463.663 72.0898 463.663 66.1208 450.866 66.1208"></polygon>
                <polygon id="Fill-122" fill="#FF008A" points="449.238 142.6466 463.663 142.6466 463.663 128.1986 445.269 128.1986"></polygon>
                <polygon id="Fill-123" fill="#FF008A" points="450.866 92.0528 463.663 92.0528 463.663 73.4918 450.866 73.4918"></polygon>
                <polygon id="Fill-124" fill="#FF008A" points="450.866 104.3638 463.663 104.3638 463.663 95.2888 450.866 95.2888"></polygon>
                <polygon id="Fill-125" fill="#FF008A" points="421.126 92.0524 434.042 92.0524 434.042 87.3264 435.34 92.0524 443.062 92.0524 437.977 73.4914 421.126 73.4914"></polygon>
                <polygon id="Fill-126" fill="#FF008A" points="450.499 147.2383 463.663 147.2383 463.663 143.7703 449.547 143.7703"></polygon>
                <polygon id="Fill-127" fill="#FF008A" points="35.111 73.4908 49.138 73.4908 49.138 72.0898 35.111 72.0898"></polygon>
                <polygon id="Fill-128" fill="#FF008A" points="5.252 73.4908 19.269 73.4908 19.269 72.0898 5.252 72.0898"></polygon>
                <polygon id="Fill-129" fill="#FF008A" points="92.3591 72.09 69.5041 72.09 69.2511 73.491 92.6231 73.491"></polygon>
                <path d="M139.293,73.4912 L153.594,73.4912 L153.594,73.4342 C153.594,72.9222 153.418,72.5692 153.382,72.0902 L138.344,72.0902 C138.461,72.1572 138.635,72.1922 138.724,72.2732 C139.001,72.5282 139.175,72.9602 139.293,73.4912" id="Fill-130" fill="#FF008A"></path>
                <path d="M112.754,73.4912 L127.055,73.4912 C127.174,72.9602 127.351,72.5282 127.634,72.2732 C127.722,72.1922 127.896,72.1572 128.012,72.0902 L112.965,72.0902 C112.929,72.5692 112.754,72.9222 112.754,73.4342 L112.754,73.4912 Z" id="Fill-131" fill="#FF008A"></path>
                <polygon id="Fill-132" fill="#FF008A" points="163.463 73.4908 177.48 73.4908 177.48 72.0898 163.463 72.0898"></polygon>
                <polygon id="Fill-133" fill="#FF008A" points="203.54 73.4912 204.12 72.0902 189.146 72.0902 188.583 73.4912"></polygon>
                <polygon id="Fill-134" fill="#FF008A" points="247.184 73.4912 246.92 72.0902 224.065 72.0902 223.812 73.4912"></polygon>
                <polygon id="Fill-135" fill="#FF008A" points="276.093 73.4908 290.11 73.4908 290.11 72.0898 276.093 72.0898"></polygon>
                <polygon id="Fill-136" fill="#FF008A" points="310.108 73.4908 324.125 73.4908 324.125 72.0898 310.108 72.0898"></polygon>
                <polygon id="Fill-137" fill="#FF008A" points="339.967 73.4908 353.994 73.4908 353.994 72.0898 339.967 72.0898"></polygon>
                <path d="M392.298,73.4912 L406.648,73.4912 L406.648,73.4342 C406.648,72.9222 406.473,72.5692 406.437,72.0902 L389.209,72.0902 C390.509,72.0902 391.411,72.3182 391.897,72.7592 C392.077,72.9262 392.186,73.2112 392.298,73.4912" id="Fill-138" fill="#FF008A"></path>
                <path d="M365.203,73.4912 L379.546,73.4912 C379.66,73.2112 379.772,72.9262 379.954,72.7592 C380.44,72.3182 381.372,72.0902 382.751,72.0902 L365.414,72.0902 C365.378,72.5692 365.203,72.9222 365.203,73.4342 L365.203,73.4912 Z" id="Fill-139" fill="#FF008A"></path>
                <polygon id="Fill-140" fill="#FF008A" points="417.977 73.4912 434.828 73.4912 434.445 72.0902 417.977 72.0902"></polygon>
                <polygon id="Fill-141" fill="#FF008A" points="447.716 73.4908 460.513 73.4908 460.513 72.0898 447.716 72.0898"></polygon>
                <polygon id="Fill-142" fill="#007FFF" points="56.3853 73.4912 42.3583 73.4912 42.3583 90.0092 26.5163 90.0092 26.5163 73.4912 12.5003 73.4912 12.5003 92.0522 56.3853 92.0522"></polygon>
                <polygon id="Fill-143" fill="#007FFF" points="42.359 142.6468 56.386 142.6468 56.386 128.1988 42.359 128.1988"></polygon>
                <polygon id="Fill-144" fill="#007FFF" points="42.359 147.2378 56.386 147.2378 56.386 143.7698 42.359 143.7698"></polygon>
                <polygon id="Fill-145" fill="#007FFF" points="12.5 72.0908 26.517 72.0908 26.517 66.1218 12.5 66.1218"></polygon>
                <polygon id="Fill-146" fill="#007FFF" points="42.358 72.0908 56.385 72.0908 56.385 66.1218 42.358 66.1218"></polygon>
                <polygon id="Fill-147" fill="#007FFF" points="42.358 123.7998 56.385 123.7998 56.385 105.0648 42.358 105.0648"></polygon>
                <polygon id="Fill-148" fill="#007FFF" points="42.358 127.6378 56.385 127.6378 56.385 125.9938 42.358 125.9938"></polygon>
                <polygon id="Fill-149" fill="#007FFF" points="12.5 147.2378 26.517 147.2378 26.517 143.7698 12.5 143.7698"></polygon>
                <polygon id="Fill-150" fill="#007FFF" points="42.358 65.4208 56.385 65.4208 56.385 61.3668 42.358 61.3668"></polygon>
                <polygon id="Fill-151" fill="#007FFF" points="12.5 123.7998 26.517 123.7998 26.517 105.0648 12.5 105.0648"></polygon>
                <polygon id="Fill-152" fill="#007FFF" points="12.5 142.6468 26.517 142.6468 26.517 128.1988 12.5 128.1988"></polygon>
                <polygon id="Fill-153" fill="#007FFF" points="12.5 127.6378 26.517 127.6378 26.517 125.9938 12.5 125.9938"></polygon>
                <polygon id="Fill-154" fill="#007FFF" points="26.5167 100.7372 42.3587 100.7372 42.3587 104.3642 56.3857 104.3642 56.3857 95.2892 12.4997 95.2892 12.4997 104.3642 26.5167 104.3642"></polygon>
                <polygon id="Fill-155" fill="#007FFF" points="12.5 65.4208 26.517 65.4208 26.517 61.3668 12.5 61.3668"></polygon>
                <polygon id="Fill-156" fill="#007FFF" points="91.0576 95.2887 92.3866 104.3637 105.699 104.3637 103.986 95.2887"></polygon>
                <polygon id="Fill-157" fill="#007FFF" points="63.2003 147.2383 77.2173 147.2383 77.8013 143.7703 63.8263 143.7703"></polygon>
                <polygon id="Fill-158" fill="#007FFF" points="99.6457 147.2383 113.792 147.2383 113.137 143.7703 99.0117 143.7703"></polygon>
                <polygon id="Fill-159" fill="#007FFF" points="97.5824 61.3667 78.6854 61.3667 77.9544 65.4207 98.3474 65.4207"></polygon>
                <polygon id="Fill-160" fill="#007FFF" points="85.2446 95.2887 72.5686 95.2887 70.9316 104.3637 83.9876 104.3637"></polygon>
                <polygon id="Fill-161" fill="#007FFF" points="109.367 123.7996 105.831 105.0646 92.4901 105.0646 94.7751 120.6626 81.7301 120.6626 83.8901 105.0646 70.8051 105.0646 67.4271 123.7996"></polygon>
                <polygon id="Fill-162" fill="#007FFF" points="99.6066 72.09 98.4796 66.121 77.8276 66.121 76.7516 72.09"></polygon>
                <polygon id="Fill-163" fill="#007FFF" points="67.0312 125.9937 66.7352 127.6377 110.091 127.6377 109.781 125.9937"></polygon>
                <polygon id="Fill-164" fill="#007FFF" points="88.0693 74.8923 90.5833 92.0523 103.374 92.0523 99.8703 73.4913 76.4993 73.4913 73.1513 92.0523 85.6933 92.0523"></polygon>
                <polygon id="Fill-165" fill="#007FFF" points="66.6338 128.199 64.0278 142.647 77.9898 142.647 79.9048 131.272 96.7298 131.272 98.8068 142.647 112.925 142.647 110.198 128.199"></polygon>
                <path d="M134.147,92.0524 L134.147,74.8924 C134.147,74.3354 134.213,73.8934 134.303,73.4914 L120.001,73.4914 L120.001,92.0524 L134.147,92.0524 Z" id="Fill-166" fill="#007FFF"></path>
                <path d="M135.259,72.09 C135.778,71.792 136.497,71.604 137.559,71.604 L143.283,71.604 C144.345,71.604 145.071,71.792 145.592,72.09 L160.63,72.09 C160.449,69.671 159.761,67.711 158.665,66.121 L122.177,66.121 C121.081,67.711 120.394,69.671 120.212,72.09 L135.259,72.09 Z" id="Fill-167" fill="#007FFF"></path>
                <path d="M146.695,86.8408 L160.841,86.8408 L160.841,73.4908 L146.54,73.4908 C146.629,73.8928 146.695,74.3348 146.695,74.8928 L146.695,86.8408 Z" id="Fill-168" fill="#007FFF"></path>
                <polygon id="Fill-169" fill="#007FFF" points="120.001 123.7998 134.147 123.7998 134.147 105.0648 120.001 105.0648"></polygon>
                <path d="M147.549,61.3667 L133.294,61.3667 C128.256,61.3667 124.814,62.8177 122.64,65.4207 L158.203,65.4207 C156.029,62.8177 152.588,61.3667 147.549,61.3667" id="Fill-170" fill="#007FFF"></path>
                <path d="M160.841,128.199 L146.695,128.199 L146.695,133.832 C146.695,135.131 146.457,136.004 145.971,136.45 C145.485,136.897 144.582,137.12 143.283,137.12 L137.559,137.12 C136.26,137.12 135.367,136.897 134.881,136.45 C134.385,136.004 134.147,135.131 134.147,133.832 L134.147,128.199 L120.001,128.199 L120.001,135.295 C120.001,138.411 120.872,140.738 122.203,142.647 L158.639,142.647 C159.97,140.738 160.841,138.411 160.841,135.295 L160.841,128.199 Z" id="Fill-171" fill="#007FFF"></path>
                <polygon id="Fill-172" fill="#007FFF" points="120.001 127.6378 134.147 127.6378 134.147 125.9938 120.001 125.9938"></polygon>
                <polygon id="Fill-173" fill="#007FFF" points="120.001 104.3638 134.147 104.3638 134.147 95.2888 120.001 95.2888"></polygon>
                <polygon id="Fill-174" fill="#007FFF" points="146.695 127.6378 160.841 127.6378 160.841 125.9938 146.695 125.9938"></polygon>
                <polygon id="Fill-175" fill="#007FFF" points="146.695 123.7998 160.841 123.7998 160.841 122.1268 146.695 122.1268"></polygon>
                <path d="M133.294,147.3623 L147.549,147.3623 C152.315,147.3623 155.694,146.1003 157.897,143.7703 L122.946,143.7703 C125.149,146.1003 128.528,147.3623 133.294,147.3623" id="Fill-176" fill="#007FFF"></path>
                <polygon id="Fill-177" fill="#007FFF" points="170.711 65.4208 184.728 65.4208 184.728 61.3668 170.711 61.3668"></polygon>
                <polygon id="Fill-178" fill="#007FFF" points="170.711 127.6378 184.728 127.6378 184.728 125.9938 170.711 125.9938"></polygon>
                <polygon id="Fill-179" fill="#007FFF" points="193.77 125.9937 194.296 127.6377 209.213 127.6377 208.671 125.9937"></polygon>
                <polygon id="Fill-180" fill="#007FFF" points="186.846 104.3641 201.526 104.3641 199.965 99.6371 201.765 95.2891 187.079 95.2891 185.333 99.6371"></polygon>
                <polygon id="Fill-181" fill="#007FFF" points="194.475 128.199 199.1 142.647 214.171 142.647 209.399 128.199"></polygon>
                <polygon id="Fill-182" fill="#007FFF" points="170.711 92.0518 184.728 92.0518 184.728 73.4908 170.711 73.4908"></polygon>
                <polygon id="Fill-183" fill="#007FFF" points="170.711 104.3638 184.728 104.3638 184.728 95.2888 170.711 95.2888"></polygon>
                <polygon id="Fill-184" fill="#007FFF" points="170.711 142.6468 184.728 142.6468 184.728 128.1988 170.711 128.1988"></polygon>
                <polygon id="Fill-185" fill="#007FFF" points="170.711 123.7998 184.728 123.7998 184.728 105.0648 170.711 105.0648"></polygon>
                <polygon id="Fill-186" fill="#007FFF" points="187.07 105.0647 193.067 123.7997 207.946 123.7997 201.758 105.0647"></polygon>
                <polygon id="Fill-187" fill="#007FFF" points="170.711 147.2378 184.728 147.2378 184.728 143.7698 170.711 143.7698"></polygon>
                <polygon id="Fill-188" fill="#007FFF" points="200.57 147.2383 215.688 147.2383 214.543 143.7703 199.46 143.7703"></polygon>
                <polygon id="Fill-189" fill="#007FFF" points="203.105 92.0524 210.789 73.4914 195.831 73.4914 188.379 92.0524"></polygon>
                <polygon id="Fill-190" fill="#007FFF" points="215.807 61.3667 200.699 61.3667 199.072 65.4207 214.129 65.4207"></polygon>
                <polygon id="Fill-191" fill="#007FFF" points="211.368 72.09 213.839 66.121 198.79 66.121 196.394 72.09"></polygon>
                <polygon id="Fill-192" fill="#007FFF" points="170.711 72.0908 184.728 72.0908 184.728 66.1218 170.711 66.1218"></polygon>
                <polygon id="Fill-193" fill="#007FFF" points="221.592 125.9937 221.296 127.6377 264.652 127.6377 264.342 125.9937"></polygon>
                <polygon id="Fill-194" fill="#007FFF" points="252.143 61.3667 233.246 61.3667 232.515 65.4207 252.908 65.4207"></polygon>
                <polygon id="Fill-195" fill="#007FFF" points="247.051 105.0647 249.336 120.6627 236.292 120.6627 238.452 105.0647 225.366 105.0647 221.988 123.7997 263.928 123.7997 260.392 105.0647"></polygon>
                <polygon id="Fill-196" fill="#007FFF" points="221.195 128.199 218.589 142.647 232.551 142.647 234.466 131.272 251.291 131.272 253.368 142.647 267.486 142.647 264.759 128.199"></polygon>
                <polygon id="Fill-197" fill="#007FFF" points="260.259 104.3641 258.546 95.2891 245.618 95.2891 246.947 104.3641"></polygon>
                <polygon id="Fill-198" fill="#007FFF" points="238.549 104.3641 239.806 95.2891 227.129 95.2891 225.493 104.3641"></polygon>
                <polygon id="Fill-199" fill="#007FFF" points="254.168 72.09 253.042 66.121 232.389 66.121 231.313 72.09"></polygon>
                <polygon id="Fill-200" fill="#007FFF" points="240.254 92.0524 242.63 74.8924 245.144 92.0524 257.935 92.0524 254.432 73.4914 231.06 73.4914 227.713 92.0524"></polygon>
                <polygon id="Fill-201" fill="#007FFF" points="254.207 147.2383 268.353 147.2383 267.698 143.7703 253.573 143.7703"></polygon>
                <polygon id="Fill-202" fill="#007FFF" points="217.761 147.2383 231.778 147.2383 232.362 143.7703 218.387 143.7703"></polygon>
                <polygon id="Fill-203" fill="#007FFF" points="283.341 147.2378 297.358 147.2378 297.358 143.7698 283.341 143.7698"></polygon>
                <polygon id="Fill-204" fill="#007FFF" points="269.929 72.09 310.888 72.09 310.888 66.121 269.929 66.121"></polygon>
                <polygon id="Fill-205" fill="#007FFF" points="283.341 127.6378 297.358 127.6378 297.358 125.9938 283.341 125.9938"></polygon>
                <polygon id="Fill-206" fill="#007FFF" points="269.929 65.4208 310.888 65.4208 310.888 61.3668 269.929 61.3668"></polygon>
                <polygon id="Fill-207" fill="#007FFF" points="283.341 92.0518 297.358 92.0518 297.358 73.4908 283.341 73.4908"></polygon>
                <polygon id="Fill-208" fill="#007FFF" points="283.341 123.7998 297.358 123.7998 297.358 105.0648 283.341 105.0648"></polygon>
                <polygon id="Fill-209" fill="#007FFF" points="283.341 142.6468 297.358 142.6468 297.358 128.1988 283.341 128.1988"></polygon>
                <polygon id="Fill-210" fill="#007FFF" points="283.341 104.3638 297.358 104.3638 297.358 95.2888 283.341 95.2888"></polygon>
                <polygon id="Fill-211" fill="#007FFF" points="317.356 142.6468 331.373 142.6468 331.373 128.1988 317.356 128.1988"></polygon>
                <polygon id="Fill-212" fill="#007FFF" points="317.356 127.6378 331.373 127.6378 331.373 125.9938 317.356 125.9938"></polygon>
                <polygon id="Fill-213" fill="#007FFF" points="331.373 104.3641 331.373 100.7371 347.215 100.7371 347.215 104.3641 361.242 104.3641 361.242 95.2891 317.356 95.2891 317.356 104.3641"></polygon>
                <polygon id="Fill-214" fill="#007FFF" points="347.215 123.7998 361.242 123.7998 361.242 105.0648 347.215 105.0648"></polygon>
                <polygon id="Fill-215" fill="#007FFF" points="361.241 92.0524 361.241 73.4914 347.214 73.4914 347.214 90.0094 331.372 90.0094 331.372 73.4914 317.356 73.4914 317.356 92.0524"></polygon>
                <polygon id="Fill-216" fill="#007FFF" points="347.215 65.4208 361.242 65.4208 361.242 61.3668 347.215 61.3668"></polygon>
                <polygon id="Fill-217" fill="#007FFF" points="317.356 123.7998 331.373 123.7998 331.373 105.0648 317.356 105.0648"></polygon>
                <polygon id="Fill-218" fill="#007FFF" points="347.215 142.6468 361.242 142.6468 361.242 128.1988 347.215 128.1988"></polygon>
                <polygon id="Fill-219" fill="#007FFF" points="347.215 127.6378 361.242 127.6378 361.242 125.9938 347.215 125.9938"></polygon>
                <polygon id="Fill-220" fill="#007FFF" points="317.356 65.4208 331.373 65.4208 331.373 61.3668 317.356 61.3668"></polygon>
                <polygon id="Fill-221" fill="#007FFF" points="317.356 72.0908 331.373 72.0908 331.373 66.1218 317.356 66.1218"></polygon>
                <polygon id="Fill-222" fill="#007FFF" points="347.215 147.2378 361.242 147.2378 361.242 143.7698 347.215 143.7698"></polygon>
                <polygon id="Fill-223" fill="#007FFF" points="347.215 72.0908 361.242 72.0908 361.242 66.1218 347.215 66.1218"></polygon>
                <polygon id="Fill-224" fill="#007FFF" points="317.356 147.2378 331.373 147.2378 331.373 143.7698 317.356 143.7698"></polygon>
                <polygon id="Fill-225" fill="#007FFF" points="399.869 123.7998 413.896 123.7998 413.896 105.0648 399.869 105.0648"></polygon>
                <polygon id="Fill-226" fill="#007FFF" points="399.869 104.3638 413.896 104.3638 413.896 95.2888 399.869 95.2888"></polygon>
                <path d="M399.869,92.0524 L413.896,92.0524 L413.896,73.4914 L399.545,73.4914 C399.738,73.9734 399.869,74.5614 399.869,75.3834 L399.869,92.0524 Z" id="Fill-227" fill="#007FFF"></path>
                <polygon id="Fill-228" fill="#007FFF" points="372.451 104.3638 386.468 104.3638 386.468 95.2888 372.451 95.2888"></polygon>
                <path d="M385.734,147.2383 L400.604,147.2383 C405.298,147.2383 408.662,146.0293 410.87,143.7703 L375.473,143.7703 C377.678,146.0293 381.04,147.2383 385.734,147.2383" id="Fill-229" fill="#007FFF"></path>
                <path d="M400.603,61.3667 L385.733,61.3667 C380.694,61.3667 377.256,62.8177 375.085,65.4207 L411.257,65.4207 C409.083,62.8177 405.642,61.3667 400.603,61.3667" id="Fill-230" fill="#007FFF"></path>
                <polygon id="Fill-231" fill="#007FFF" points="399.869 127.6378 413.896 127.6378 413.896 125.9938 399.869 125.9938"></polygon>
                <path d="M386.468,92.0524 L386.468,75.3834 C386.468,74.5614 386.599,73.9734 386.795,73.4914 L372.451,73.4914 L372.451,92.0524 L386.468,92.0524 Z" id="Fill-232" fill="#007FFF"></path>
                <path d="M413.896,128.199 L399.869,128.199 L399.869,133.222 C399.869,134.521 399.631,135.394 399.145,135.84 C398.659,136.287 397.756,136.51 396.457,136.51 L389.999,136.51 C388.62,136.51 387.688,136.287 387.202,135.84 C386.706,135.394 386.468,134.521 386.468,133.222 L386.468,128.199 L372.451,128.199 L372.451,135.171 C372.451,138.353 373.346,140.723 374.731,142.647 L411.613,142.647 C413,140.723 413.896,138.353 413.896,135.171 L413.896,128.199 Z" id="Fill-233" fill="#007FFF"></path>
                <path d="M372.662,72.09 L413.684,72.09 C413.503,69.671 412.816,67.711 411.72,66.121 L374.623,66.121 C373.529,67.711 372.843,69.671 372.662,72.09 Z" id="Fill-234" fill="#007FFF"></path>
                <polygon id="Fill-235" fill="#007FFF" points="372.451 123.7998 386.468 123.7998 386.468 105.0648 372.451 105.0648"></polygon>
                <polygon id="Fill-236" fill="#007FFF" points="372.451 127.6378 386.468 127.6378 386.468 125.9938 372.451 125.9938"></polygon>
                <polygon id="Fill-237" fill="#007FFF" points="425.224 147.2378 438.14 147.2378 438.14 143.7698 425.224 143.7698"></polygon>
                <polygon id="Fill-238" fill="#007FFF" points="442.82 104.3641 450.533 104.3641 448.047 95.2891 440.328 95.2891"></polygon>
                <polygon id="Fill-239" fill="#007FFF" points="425.224 123.7998 438.14 123.7998 438.14 105.0648 425.224 105.0648"></polygon>
                <polygon id="Fill-240" fill="#007FFF" points="425.224 104.3638 438.14 104.3638 438.14 95.2888 425.224 95.2888"></polygon>
                <polygon id="Fill-241" fill="#007FFF" points="441.692 72.09 440.058 66.121 425.224 66.121 425.224 72.09"></polygon>
                <polygon id="Fill-242" fill="#007FFF" points="425.224 127.6378 438.14 127.6378 438.14 125.9938 425.224 125.9938"></polygon>
                <polygon id="Fill-243" fill="#007FFF" points="454.964 120.544 450.724 105.065 443.012 105.065 448.158 123.8 467.761 123.8 467.761 105.065 454.964 105.065"></polygon>
                <polygon id="Fill-244" fill="#007FFF" points="449.213 127.6373 467.761 127.6373 467.761 125.9933 448.762 125.9933"></polygon>
                <polygon id="Fill-245" fill="#007FFF" points="438.755 61.3667 425.224 61.3667 425.224 65.4207 439.865 65.4207"></polygon>
                <polygon id="Fill-246" fill="#007FFF" points="454.964 65.4208 467.761 65.4208 467.761 61.3668 454.964 61.3668"></polygon>
                <polygon id="Fill-247" fill="#007FFF" points="425.224 142.6468 438.14 142.6468 438.14 128.1988 425.224 128.1988"></polygon>
                <polygon id="Fill-248" fill="#007FFF" points="454.964 72.0898 467.761 72.0898 467.761 66.1208 454.964 66.1208"></polygon>
                <polygon id="Fill-249" fill="#007FFF" points="453.336 142.6466 467.761 142.6466 467.761 128.1986 449.367 128.1986"></polygon>
                <polygon id="Fill-250" fill="#007FFF" points="454.964 92.0528 467.761 92.0528 467.761 73.4918 454.964 73.4918"></polygon>
                <polygon id="Fill-251" fill="#007FFF" points="454.964 104.3638 467.761 104.3638 467.761 95.2888 454.964 95.2888"></polygon>
                <polygon id="Fill-252" fill="#007FFF" points="425.224 92.0524 438.14 92.0524 438.14 87.3264 439.438 92.0524 447.16 92.0524 442.075 73.4914 425.224 73.4914"></polygon>
                <polygon id="Fill-253" fill="#007FFF" points="454.597 147.2383 467.761 147.2383 467.761 143.7703 453.645 143.7703"></polygon>
                <polygon id="Fill-254" fill="#007FFF" points="39.209 73.4908 53.236 73.4908 53.236 72.0898 39.209 72.0898"></polygon>
                <polygon id="Fill-255" fill="#007FFF" points="9.35 73.4908 23.367 73.4908 23.367 72.0898 9.35 72.0898"></polygon>
                <polygon id="Fill-256" fill="#007FFF" points="96.4571 72.09 73.6021 72.09 73.3491 73.491 96.7211 73.491"></polygon>
                <path d="M143.391,73.4912 L157.692,73.4912 L157.692,73.4342 C157.692,72.9222 157.516,72.5692 157.48,72.0902 L142.442,72.0902 C142.559,72.1572 142.733,72.1922 142.822,72.2732 C143.099,72.5282 143.273,72.9602 143.391,73.4912" id="Fill-257" fill="#007FFF"></path>
                <path d="M116.852,73.4912 L131.153,73.4912 C131.272,72.9602 131.449,72.5282 131.732,72.2732 C131.82,72.1922 131.994,72.1572 132.11,72.0902 L117.063,72.0902 C117.027,72.5692 116.852,72.9222 116.852,73.4342 L116.852,73.4912 Z" id="Fill-258" fill="#007FFF"></path>
                <polygon id="Fill-259" fill="#007FFF" points="167.562 73.4908 181.579 73.4908 181.579 72.0898 167.562 72.0898"></polygon>
                <polygon id="Fill-260" fill="#007FFF" points="207.639 73.4912 208.219 72.0902 193.245 72.0902 192.681 73.4912"></polygon>
                <polygon id="Fill-261" fill="#007FFF" points="251.282 73.4912 251.018 72.0902 228.163 72.0902 227.91 73.4912"></polygon>
                <polygon id="Fill-262" fill="#007FFF" points="280.191 73.4908 294.208 73.4908 294.208 72.0898 280.191 72.0898"></polygon>
                <polygon id="Fill-263" fill="#007FFF" points="314.206 73.4908 328.223 73.4908 328.223 72.0898 314.206 72.0898"></polygon>
                <polygon id="Fill-264" fill="#007FFF" points="344.065 73.4908 358.092 73.4908 358.092 72.0898 344.065 72.0898"></polygon>
                <path d="M396.396,73.4912 L410.746,73.4912 L410.746,73.4342 C410.746,72.9222 410.571,72.5692 410.535,72.0902 L393.307,72.0902 C394.607,72.0902 395.509,72.3182 395.995,72.7592 C396.175,72.9262 396.284,73.2112 396.396,73.4912" id="Fill-265" fill="#007FFF"></path>
                <path d="M369.301,73.4912 L383.644,73.4912 C383.758,73.2112 383.869,72.9262 384.052,72.7592 C384.538,72.3182 385.47,72.0902 386.849,72.0902 L369.512,72.0902 C369.476,72.5692 369.301,72.9222 369.301,73.4342 L369.301,73.4912 Z" id="Fill-266" fill="#007FFF"></path>
                <polygon id="Fill-267" fill="#007FFF" points="422.075 73.4912 438.926 73.4912 438.543 72.0902 422.075 72.0902"></polygon>
                <polygon id="Fill-268" fill="#007FFF" points="451.815 73.4908 464.612 73.4908 464.612 72.0898 451.815 72.0898"></polygon>
                <polygon id="Fill-269" fill="#FF008A" points="14.31 95.2888 58.195 95.2888 58.195 92.0528 14.31 92.0528"></polygon>
                <polygon id="Fill-270" fill="#FF008A" points="105.795 95.2887 105.184 92.0527 92.3934 92.0527 92.8674 95.2887"></polygon>
                <polygon id="Fill-271" fill="#FF008A" points="87.5026 92.0524 74.9616 92.0524 74.3776 95.2884 87.0546 95.2884"></polygon>
                <polygon id="Fill-272" fill="#FF008A" points="121.811 95.2888 135.957 95.2888 135.957 92.0528 121.811 92.0528"></polygon>
                <polygon id="Fill-273" fill="#FF008A" points="203.575 95.2887 204.915 92.0527 190.189 92.0527 188.889 95.2887"></polygon>
                <polygon id="Fill-274" fill="#FF008A" points="172.521 95.2888 186.538 95.2888 186.538 92.0528 172.521 92.0528"></polygon>
                <polygon id="Fill-275" fill="#FF008A" points="260.356 95.2887 259.745 92.0527 246.954 92.0527 247.428 95.2887"></polygon>
                <polygon id="Fill-276" fill="#FF008A" points="241.615 95.2887 242.063 92.0527 229.522 92.0527 228.939 95.2887"></polygon>
                <polygon id="Fill-277" fill="#FF008A" points="285.151 95.2888 299.168 95.2888 299.168 92.0528 285.151 92.0528"></polygon>
                <polygon id="Fill-278" fill="#FF008A" points="319.166 95.2888 363.051 95.2888 363.051 92.0528 319.166 92.0528"></polygon>
                <polygon id="Fill-279" fill="#FF008A" points="401.679 95.2888 415.706 95.2888 415.706 92.0528 401.679 92.0528"></polygon>
                <polygon id="Fill-280" fill="#FF008A" points="374.26 95.2888 388.277 95.2888 388.277 92.0528 374.26 92.0528"></polygon>
                <polygon id="Fill-281" fill="#FF008A" points="427.034 95.2888 439.95 95.2888 439.95 92.0528 427.034 92.0528"></polygon>
                <polygon id="Fill-282" fill="#FF008A" points="442.137 95.2887 449.856 95.2887 448.97 92.0527 441.248 92.0527"></polygon>
                <polygon id="Fill-283" fill="#FF008A" points="456.774 95.2888 469.571 95.2888 469.571 92.0528 456.774 92.0528"></polygon>
                <polygon id="Fill-284" fill="#007FFF" points="18.408 95.2888 62.293 95.2888 62.293 92.0528 18.408 92.0528"></polygon>
                <polygon id="Fill-285" fill="#007FFF" points="109.893 95.2887 109.282 92.0527 96.4915 92.0527 96.9655 95.2887"></polygon>
                <polygon id="Fill-286" fill="#007FFF" points="91.6007 92.0524 79.0597 92.0524 78.4757 95.2884 91.1527 95.2884"></polygon>
                <polygon id="Fill-287" fill="#007FFF" points="125.909 95.2888 140.055 95.2888 140.055 92.0528 125.909 92.0528"></polygon>
                <polygon id="Fill-288" fill="#007FFF" points="207.673 95.2887 209.013 92.0527 194.287 92.0527 192.987 95.2887"></polygon>
                <polygon id="Fill-289" fill="#007FFF" points="176.619 95.2888 190.636 95.2888 190.636 92.0528 176.619 92.0528"></polygon>
                <polygon id="Fill-290" fill="#007FFF" points="264.454 95.2887 263.843 92.0527 251.052 92.0527 251.526 95.2887"></polygon>
                <polygon id="Fill-291" fill="#007FFF" points="245.713 95.2887 246.161 92.0527 233.62 92.0527 233.037 95.2887"></polygon>
                <polygon id="Fill-292" fill="#007FFF" points="289.249 95.2888 303.266 95.2888 303.266 92.0528 289.249 92.0528"></polygon>
                <polygon id="Fill-293" fill="#007FFF" points="323.264 95.2888 367.149 95.2888 367.149 92.0528 323.264 92.0528"></polygon>
                <polygon id="Fill-294" fill="#007FFF" points="405.777 95.2888 419.804 95.2888 419.804 92.0528 405.777 92.0528"></polygon>
                <polygon id="Fill-295" fill="#007FFF" points="378.359 95.2888 392.376 95.2888 392.376 92.0528 378.359 92.0528"></polygon>
                <polygon id="Fill-296" fill="#007FFF" points="431.132 95.2888 444.048 95.2888 444.048 92.0528 431.132 92.0528"></polygon>
                <polygon id="Fill-297" fill="#007FFF" points="446.235 95.2887 453.954 95.2887 453.068 92.0527 445.346 92.0527"></polygon>
                <polygon id="Fill-298" fill="#007FFF" points="460.872 95.2888 473.669 95.2888 473.669 92.0528 460.872 92.0528"></polygon>
                <polygon id="Fill-299" fill="#FF008A" points="14.865 143.7708 28.882 143.7708 28.882 142.6468 14.865 142.6468"></polygon>
                <polygon id="Fill-300" fill="#FF008A" points="44.723 143.7708 58.75 143.7708 58.75 142.6468 44.723 142.6468"></polygon>
                <polygon id="Fill-301" fill="#FF008A" points="101.171 142.6466 101.376 143.7706 115.501 143.7706 115.289 142.6466"></polygon>
                <polygon id="Fill-302" fill="#FF008A" points="66.3925 142.6466 66.1905 143.7706 80.1655 143.7706 80.3545 142.6466"></polygon>
                <path d="M124.567,142.6466 C124.822,143.0146 125.005,143.4486 125.31,143.7706 L160.261,143.7706 C160.566,143.4486 160.748,143.0146 161.004,142.6466 L124.567,142.6466 Z" id="Fill-303" fill="#FF008A"></path>
                <polygon id="Fill-304" fill="#FF008A" points="201.465 142.6466 201.825 143.7706 216.908 143.7706 216.536 142.6466"></polygon>
                <polygon id="Fill-305" fill="#FF008A" points="173.076 143.7708 187.093 143.7708 187.093 142.6468 173.076 142.6468"></polygon>
                <polygon id="Fill-306" fill="#FF008A" points="255.732 142.6466 255.937 143.7706 270.062 143.7706 269.85 142.6466"></polygon>
                <polygon id="Fill-307" fill="#FF008A" points="220.953 142.6466 220.751 143.7706 234.726 143.7706 234.915 142.6466"></polygon>
                <polygon id="Fill-308" fill="#FF008A" points="285.706 143.7708 299.723 143.7708 299.723 142.6468 285.706 142.6468"></polygon>
                <polygon id="Fill-309" fill="#FF008A" points="349.579 143.7708 363.606 143.7708 363.606 142.6468 349.579 142.6468"></polygon>
                <polygon id="Fill-310" fill="#FF008A" points="319.721 143.7708 333.738 143.7708 333.738 142.6468 319.721 142.6468"></polygon>
                <path d="M377.095,142.6466 C377.356,143.0086 377.527,143.4526 377.837,143.7706 L413.234,143.7706 C413.545,143.4526 413.716,143.0086 413.977,142.6466 L377.095,142.6466 Z" id="Fill-311" fill="#FF008A"></path>
                <polygon id="Fill-312" fill="#FF008A" points="427.589 143.7708 440.505 143.7708 440.505 142.6468 427.589 142.6468"></polygon>
                <polygon id="Fill-313" fill="#FF008A" points="456.009 143.7707 470.125 143.7707 470.125 142.6467 455.7 142.6467"></polygon>
                <polygon id="Fill-314" fill="#007FFF" points="18.963 143.7708 32.98 143.7708 32.98 142.6468 18.963 142.6468"></polygon>
                <polygon id="Fill-315" fill="#007FFF" points="48.821 143.7708 62.848 143.7708 62.848 142.6468 48.821 142.6468"></polygon>
                <polygon id="Fill-316" fill="#007FFF" points="105.269 142.6466 105.474 143.7706 119.599 143.7706 119.387 142.6466"></polygon>
                <polygon id="Fill-317" fill="#007FFF" points="70.4906 142.6466 70.2886 143.7706 84.2636 143.7706 84.4526 142.6466"></polygon>
                <path d="M128.665,142.6466 C128.92,143.0146 129.103,143.4486 129.408,143.7706 L164.359,143.7706 C164.664,143.4486 164.846,143.0146 165.102,142.6466 L128.665,142.6466 Z" id="Fill-318" fill="#007FFF"></path>
                <polygon id="Fill-319" fill="#007FFF" points="205.563 142.6466 205.923 143.7706 221.006 143.7706 220.634 142.6466"></polygon>
                <polygon id="Fill-320" fill="#007FFF" points="177.174 143.7708 191.191 143.7708 191.191 142.6468 177.174 142.6468"></polygon>
                <polygon id="Fill-321" fill="#007FFF" points="259.83 142.6466 260.035 143.7706 274.16 143.7706 273.948 142.6466"></polygon>
                <polygon id="Fill-322" fill="#007FFF" points="225.051 142.6466 224.849 143.7706 238.824 143.7706 239.013 142.6466"></polygon>
                <polygon id="Fill-323" fill="#007FFF" points="289.804 143.7708 303.821 143.7708 303.821 142.6468 289.804 142.6468"></polygon>
                <polygon id="Fill-324" fill="#007FFF" points="353.677 143.7708 367.704 143.7708 367.704 142.6468 353.677 142.6468"></polygon>
                <polygon id="Fill-325" fill="#007FFF" points="323.819 143.7708 337.836 143.7708 337.836 142.6468 323.819 142.6468"></polygon>
                <path d="M381.193,142.6466 C381.454,143.0086 381.625,143.4526 381.935,143.7706 L417.332,143.7706 C417.643,143.4526 417.814,143.0086 418.075,142.6466 L381.193,142.6466 Z" id="Fill-326" fill="#007FFF"></path>
                <polygon id="Fill-327" fill="#007FFF" points="431.687 143.7708 444.603 143.7708 444.603 142.6468 431.687 142.6468"></polygon>
                <polygon id="Fill-328" fill="#007FFF" points="460.107 143.7707 474.223 143.7707 474.223 142.6467 459.798 142.6467"></polygon>
                <polygon id="Fill-329" fill="#FF008A" points="34.84 128.1988 48.867 128.1988 48.867 127.6368 34.84 127.6368"></polygon>
                <polygon id="Fill-330" fill="#FF008A" points="4.981 128.1998 18.998 128.1998 18.998 127.6378 4.981 127.6378"></polygon>
                <polygon id="Fill-331" fill="#FF008A" points="59.216 127.6373 59.115 128.1993 102.678 128.1993 102.572 127.6373"></polygon>
                <polygon id="Fill-332" fill="#FF008A" points="112.482 128.1988 126.628 128.1988 126.628 127.6368 112.482 127.6368"></polygon>
                <polygon id="Fill-333" fill="#FF008A" points="139.177 128.1988 153.323 128.1988 153.323 127.6368 139.177 127.6368"></polygon>
                <polygon id="Fill-334" fill="#FF008A" points="163.193 128.1988 177.21 128.1988 177.21 127.6368 163.193 127.6368"></polygon>
                <polygon id="Fill-335" fill="#FF008A" points="186.777 127.6373 186.957 128.1993 201.881 128.1993 201.695 127.6373"></polygon>
                <polygon id="Fill-336" fill="#FF008A" points="213.777 127.6373 213.676 128.1993 257.239 128.1993 257.133 127.6373"></polygon>
                <polygon id="Fill-337" fill="#FF008A" points="275.822 128.1988 289.839 128.1988 289.839 127.6368 275.822 127.6368"></polygon>
                <polygon id="Fill-338" fill="#FF008A" points="309.837 128.1988 323.854 128.1988 323.854 127.6368 309.837 127.6368"></polygon>
                <polygon id="Fill-339" fill="#FF008A" points="339.696 128.1988 353.723 128.1988 353.723 127.6368 339.696 127.6368"></polygon>
                <polygon id="Fill-340" fill="#FF008A" points="392.35 128.1988 406.377 128.1988 406.377 127.6368 392.35 127.6368"></polygon>
                <polygon id="Fill-341" fill="#FF008A" points="364.932 128.1988 378.949 128.1988 378.949 127.6368 364.932 127.6368"></polygon>
                <polygon id="Fill-342" fill="#FF008A" points="441.849 128.199 460.242 128.199 460.242 127.637 441.695 127.637"></polygon>
                <polygon id="Fill-343" fill="#FF008A" points="417.706 128.1988 430.622 128.1988 430.622 127.6368 417.706 127.6368"></polygon>
                <polygon id="Fill-344" fill="#007FFF" points="38.938 128.1988 52.965 128.1988 52.965 127.6368 38.938 127.6368"></polygon>
                <polygon id="Fill-345" fill="#007FFF" points="9.079 128.1998 23.096 128.1998 23.096 127.6378 9.079 127.6378"></polygon>
                <polygon id="Fill-346" fill="#007FFF" points="63.314 127.6373 63.213 128.1993 106.776 128.1993 106.67 127.6373"></polygon>
                <polygon id="Fill-347" fill="#007FFF" points="116.58 128.1988 130.726 128.1988 130.726 127.6368 116.58 127.6368"></polygon>
                <polygon id="Fill-348" fill="#007FFF" points="143.275 128.1988 157.421 128.1988 157.421 127.6368 143.275 127.6368"></polygon>
                <polygon id="Fill-349" fill="#007FFF" points="167.291 128.1988 181.308 128.1988 181.308 127.6368 167.291 127.6368"></polygon>
                <polygon id="Fill-350" fill="#007FFF" points="190.875 127.6373 191.055 128.1993 205.979 128.1993 205.793 127.6373"></polygon>
                <polygon id="Fill-351" fill="#007FFF" points="217.875 127.6373 217.774 128.1993 261.337 128.1993 261.231 127.6373"></polygon>
                <polygon id="Fill-352" fill="#007FFF" points="279.92 128.1988 293.937 128.1988 293.937 127.6368 279.92 127.6368"></polygon>
                <polygon id="Fill-353" fill="#007FFF" points="313.935 128.1988 327.952 128.1988 327.952 127.6368 313.935 127.6368"></polygon>
                <polygon id="Fill-354" fill="#007FFF" points="343.794 128.1988 357.821 128.1988 357.821 127.6368 343.794 127.6368"></polygon>
                <polygon id="Fill-355" fill="#007FFF" points="396.449 128.1988 410.476 128.1988 410.476 127.6368 396.449 127.6368"></polygon>
                <polygon id="Fill-356" fill="#007FFF" points="369.03 128.1988 383.047 128.1988 383.047 127.6368 369.03 127.6368"></polygon>
                <polygon id="Fill-357" fill="#007FFF" points="445.947 128.199 464.34 128.199 464.34 127.637 445.793 127.637"></polygon>
                <polygon id="Fill-358" fill="#007FFF" points="421.804 128.1988 434.72 128.1988 434.72 127.6368 421.804 127.6368"></polygon>
                <polygon id="Fill-359" fill="#FF008A" points="12.102 125.9938 26.119 125.9938 26.119 123.7998 12.102 123.7998"></polygon>
                <polygon id="Fill-360" fill="#FF008A" points="41.961 125.9938 55.988 125.9938 55.988 123.7998 41.961 123.7998"></polygon>
                <polygon id="Fill-361" fill="#FF008A" points="109.384 125.9937 108.97 123.7997 67.0285 123.7997 66.6335 125.9937"></polygon>
                <polygon id="Fill-362" fill="#FF008A" points="146.298 125.9938 160.444 125.9938 160.444 123.7998 146.298 123.7998"></polygon>
                <polygon id="Fill-363" fill="#FF008A" points="119.603 125.9938 133.749 125.9938 133.749 123.7998 119.603 123.7998"></polygon>
                <polygon id="Fill-364" fill="#FF008A" points="192.67 123.7996 193.372 125.9936 208.273 125.9936 207.548 123.7996"></polygon>
                <polygon id="Fill-365" fill="#FF008A" points="170.314 125.9938 184.331 125.9938 184.331 123.7998 170.314 123.7998"></polygon>
                <polygon id="Fill-366" fill="#FF008A" points="221.59 123.7996 221.194 125.9936 263.945 125.9936 263.53 123.7996"></polygon>
                <polygon id="Fill-367" fill="#FF008A" points="282.943 125.9938 296.96 125.9938 296.96 123.7998 282.943 123.7998"></polygon>
                <polygon id="Fill-368" fill="#FF008A" points="346.817 125.9938 360.844 125.9938 360.844 123.7998 346.817 123.7998"></polygon>
                <polygon id="Fill-369" fill="#FF008A" points="316.958 125.9938 330.975 125.9938 330.975 123.7998 316.958 123.7998"></polygon>
                <polygon id="Fill-370" fill="#FF008A" points="372.053 125.9938 386.07 125.9938 386.07 123.7998 372.053 123.7998"></polygon>
                <polygon id="Fill-371" fill="#FF008A" points="399.472 125.9938 413.499 125.9938 413.499 123.7998 399.472 123.7998"></polygon>
                <polygon id="Fill-372" fill="#FF008A" points="424.827 125.9938 437.743 125.9938 437.743 123.7998 424.827 123.7998"></polygon>
                <polygon id="Fill-373" fill="#FF008A" points="448.364 125.9937 467.363 125.9937 467.363 123.7997 447.761 123.7997"></polygon>
                <polygon id="Fill-374" fill="#007FFF" points="16.2 125.9938 30.217 125.9938 30.217 123.7998 16.2 123.7998"></polygon>
                <polygon id="Fill-375" fill="#007FFF" points="46.059 125.9938 60.086 125.9938 60.086 123.7998 46.059 123.7998"></polygon>
                <polygon id="Fill-376" fill="#007FFF" points="113.481 125.9937 113.067 123.7997 71.1265 123.7997 70.7315 125.9937"></polygon>
                <polygon id="Fill-377" fill="#007FFF" points="150.396 125.9938 164.542 125.9938 164.542 123.7998 150.396 123.7998"></polygon>
                <polygon id="Fill-378" fill="#007FFF" points="123.701 125.9938 137.847 125.9938 137.847 123.7998 123.701 123.7998"></polygon>
                <polygon id="Fill-379" fill="#007FFF" points="196.768 123.7996 197.47 125.9936 212.371 125.9936 211.647 123.7996"></polygon>
                <polygon id="Fill-380" fill="#007FFF" points="174.412 125.9938 188.429 125.9938 188.429 123.7998 174.412 123.7998"></polygon>
                <polygon id="Fill-381" fill="#007FFF" points="225.688 123.7996 225.292 125.9936 268.043 125.9936 267.628 123.7996"></polygon>
                <polygon id="Fill-382" fill="#007FFF" points="287.041 125.9938 301.058 125.9938 301.058 123.7998 287.041 123.7998"></polygon>
                <polygon id="Fill-383" fill="#007FFF" points="350.915 125.9938 364.942 125.9938 364.942 123.7998 350.915 123.7998"></polygon>
                <polygon id="Fill-384" fill="#007FFF" points="321.056 125.9938 335.073 125.9938 335.073 123.7998 321.056 123.7998"></polygon>
                <polygon id="Fill-385" fill="#007FFF" points="376.151 125.9938 390.168 125.9938 390.168 123.7998 376.151 123.7998"></polygon>
                <polygon id="Fill-386" fill="#007FFF" points="403.57 125.9938 417.597 125.9938 417.597 123.7998 403.57 123.7998"></polygon>
                <polygon id="Fill-387" fill="#007FFF" points="428.925 125.9938 441.841 125.9938 441.841 123.7998 428.925 123.7998"></polygon>
                <polygon id="Fill-388" fill="#007FFF" points="452.462 125.9937 471.461 125.9937 471.461 123.7997 451.859 123.7997"></polygon>
                <polygon id="Fill-389" fill="#FF008A" points="0 105.0648 14.017 105.0648 14.017 104.3638 0 104.3638"></polygon>
                <polygon id="Fill-390" fill="#FF008A" points="29.859 105.0648 43.886 105.0648 43.886 104.3638 29.859 104.3638"></polygon>
                <polygon id="Fill-391" fill="#FF008A" points="71.4884 104.3641 58.4324 104.3641 58.3054 105.0651 71.3914 105.0651"></polygon>
                <polygon id="Fill-392" fill="#FF008A" points="79.8874 104.3641 79.9904 105.0651 93.3314 105.0651 93.1994 104.3641"></polygon>
                <polygon id="Fill-393" fill="#FF008A" points="107.501 105.0648 121.647 105.0648 121.647 104.3638 107.501 104.3638"></polygon>
                <polygon id="Fill-394" fill="#FF008A" points="174.346 104.3641 174.57 105.0651 189.258 105.0651 189.026 104.3641"></polygon>
                <polygon id="Fill-395" fill="#FF008A" points="158.212 105.0648 172.229 105.0648 172.229 104.3638 158.212 104.3638"></polygon>
                <polygon id="Fill-396" fill="#FF008A" points="234.448 104.3641 234.551 105.0651 247.892 105.0651 247.76 104.3641"></polygon>
                <polygon id="Fill-397" fill="#FF008A" points="212.993 104.3641 212.867 105.0651 225.952 105.0651 226.049 104.3641"></polygon>
                <polygon id="Fill-398" fill="#FF008A" points="270.842 105.0648 284.859 105.0648 284.859 104.3638 270.842 104.3638"></polygon>
                <polygon id="Fill-399" fill="#FF008A" points="304.857 105.0648 318.874 105.0648 318.874 104.3638 304.857 104.3638"></polygon>
                <polygon id="Fill-400" fill="#FF008A" points="334.715 105.0648 348.742 105.0648 348.742 104.3638 334.715 104.3638"></polygon>
                <polygon id="Fill-401" fill="#FF008A" points="387.37 105.0648 401.397 105.0648 401.397 104.3638 387.37 104.3638"></polygon>
                <polygon id="Fill-402" fill="#FF008A" points="359.951 105.0648 373.968 105.0648 373.968 104.3638 359.951 104.3638"></polygon>
                <polygon id="Fill-403" fill="#FF008A" points="412.725 105.0648 425.641 105.0648 425.641 104.3638 412.725 104.3638"></polygon>
                <polygon id="Fill-404" fill="#FF008A" points="442.465 105.0648 455.262 105.0648 455.262 104.3638 442.465 104.3638"></polygon>
                <polygon id="Fill-405" fill="#FF008A" points="430.32 104.3641 430.513 105.0651 438.224 105.0651 438.033 104.3641"></polygon>
                <polygon id="Fill-406" fill="#007FFF" points="4.098 105.0648 18.115 105.0648 18.115 104.3638 4.098 104.3638"></polygon>
                <polygon id="Fill-407" fill="#007FFF" points="33.957 105.0648 47.984 105.0648 47.984 104.3638 33.957 104.3638"></polygon>
                <polygon id="Fill-408" fill="#007FFF" points="75.5865 104.3641 62.5305 104.3641 62.4035 105.0651 75.4895 105.0651"></polygon>
                <polygon id="Fill-409" fill="#007FFF" points="83.9855 104.3641 84.0885 105.0651 97.4295 105.0651 97.2975 104.3641"></polygon>
                <polygon id="Fill-410" fill="#007FFF" points="111.599 105.0648 125.745 105.0648 125.745 104.3638 111.599 104.3638"></polygon>
                <polygon id="Fill-411" fill="#007FFF" points="178.445 104.3641 178.669 105.0651 193.357 105.0651 193.125 104.3641"></polygon>
                <polygon id="Fill-412" fill="#007FFF" points="162.31 105.0648 176.327 105.0648 176.327 104.3638 162.31 104.3638"></polygon>
                <polygon id="Fill-413" fill="#007FFF" points="238.546 104.3641 238.649 105.0651 251.99 105.0651 251.858 104.3641"></polygon>
                <polygon id="Fill-414" fill="#007FFF" points="217.091 104.3641 216.965 105.0651 230.05 105.0651 230.147 104.3641"></polygon>
                <polygon id="Fill-415" fill="#007FFF" points="274.94 105.0648 288.957 105.0648 288.957 104.3638 274.94 104.3638"></polygon>
                <polygon id="Fill-416" fill="#007FFF" points="308.955 105.0648 322.972 105.0648 322.972 104.3638 308.955 104.3638"></polygon>
                <polygon id="Fill-417" fill="#007FFF" points="338.813 105.0648 352.84 105.0648 352.84 104.3638 338.813 104.3638"></polygon>
                <polygon id="Fill-418" fill="#007FFF" points="391.468 105.0648 405.495 105.0648 405.495 104.3638 391.468 104.3638"></polygon>
                <polygon id="Fill-419" fill="#007FFF" points="364.05 105.0648 378.067 105.0648 378.067 104.3638 364.05 104.3638"></polygon>
                <polygon id="Fill-420" fill="#007FFF" points="416.823 105.0648 429.739 105.0648 429.739 104.3638 416.823 104.3638"></polygon>
                <polygon id="Fill-421" fill="#007FFF" points="446.563 105.0648 459.36 105.0648 459.36 104.3638 446.563 104.3638"></polygon>
                <polygon id="Fill-422" fill="#007FFF" points="434.418 104.3641 434.611 105.0651 442.322 105.0651 442.131 104.3641"></polygon>
                <polygon id="Fill-423" fill="#FF008A" points="9.35 66.1218 23.367 66.1218 23.367 65.4208 9.35 65.4208"></polygon>
                <polygon id="Fill-424" fill="#FF008A" points="39.209 66.1218 53.236 66.1218 53.236 65.4208 39.209 65.4208"></polygon>
                <polygon id="Fill-425" fill="#FF008A" points="95.3306 66.1214 95.1976 65.4204 74.8046 65.4204 74.6786 66.1214"></polygon>
                <path d="M155.516,66.1214 C155.357,65.8914 155.231,65.6324 155.053,65.4204 L119.49,65.4204 C119.312,65.6324 119.186,65.8914 119.027,66.1214 L155.516,66.1214 Z" id="Fill-426" fill="#FF008A"></path>
                <polygon id="Fill-427" fill="#FF008A" points="210.689 66.1214 210.979 65.4204 195.922 65.4204 195.641 66.1214"></polygon>
                <polygon id="Fill-428" fill="#FF008A" points="167.562 66.1218 181.579 66.1218 181.579 65.4208 167.562 65.4208"></polygon>
                <polygon id="Fill-429" fill="#FF008A" points="249.891 66.1214 249.758 65.4204 229.365 65.4204 229.239 66.1214"></polygon>
                <polygon id="Fill-430" fill="#FF008A" points="266.78 66.1218 307.739 66.1218 307.739 65.4208 266.78 65.4208"></polygon>
                <polygon id="Fill-431" fill="#FF008A" points="344.065 66.1218 358.092 66.1218 358.092 65.4208 344.065 65.4208"></polygon>
                <polygon id="Fill-432" fill="#FF008A" points="314.206 66.1218 328.223 66.1218 328.223 65.4208 314.206 65.4208"></polygon>
                <path d="M408.571,66.1214 C408.412,65.8914 408.286,65.6324 408.108,65.4204 L371.936,65.4204 C371.758,65.6324 371.631,65.8914 371.473,66.1214 L408.571,66.1214 Z" id="Fill-433" fill="#FF008A"></path>
                <polygon id="Fill-434" fill="#FF008A" points="436.908 66.1214 436.716 65.4204 422.075 65.4204 422.075 66.1214"></polygon>
                <polygon id="Fill-435" fill="#FF008A" points="451.814 66.1218 464.611 66.1218 464.611 65.4208 451.814 65.4208"></polygon>
                <polygon id="Fill-436" fill="#007FFF" points="13.448 66.1218 27.465 66.1218 27.465 65.4208 13.448 65.4208"></polygon>
                <polygon id="Fill-437" fill="#007FFF" points="43.307 66.1218 57.334 66.1218 57.334 65.4208 43.307 65.4208"></polygon>
                <polygon id="Fill-438" fill="#007FFF" points="99.4286 66.1214 99.2956 65.4204 78.9026 65.4204 78.7766 66.1214"></polygon>
                <path d="M159.614,66.1214 C159.455,65.8914 159.329,65.6324 159.151,65.4204 L123.588,65.4204 C123.41,65.6324 123.284,65.8914 123.125,66.1214 L159.614,66.1214 Z" id="Fill-439" fill="#007FFF"></path>
                <polygon id="Fill-440" fill="#007FFF" points="214.787 66.1214 215.077 65.4204 200.02 65.4204 199.739 66.1214"></polygon>
                <polygon id="Fill-441" fill="#007FFF" points="171.66 66.1218 185.677 66.1218 185.677 65.4208 171.66 65.4208"></polygon>
                <polygon id="Fill-442" fill="#007FFF" points="253.989 66.1214 253.856 65.4204 233.463 65.4204 233.337 66.1214"></polygon>
                <polygon id="Fill-443" fill="#007FFF" points="270.878 66.1218 311.837 66.1218 311.837 65.4208 270.878 65.4208"></polygon>
                <polygon id="Fill-444" fill="#007FFF" points="348.163 66.1218 362.19 66.1218 362.19 65.4208 348.163 65.4208"></polygon>
                <polygon id="Fill-445" fill="#007FFF" points="318.304 66.1218 332.321 66.1218 332.321 65.4208 318.304 65.4208"></polygon>
                <path d="M412.669,66.1214 C412.51,65.8914 412.384,65.6324 412.206,65.4204 L376.034,65.4204 C375.856,65.6324 375.729,65.8914 375.571,66.1214 L412.669,66.1214 Z" id="Fill-446" fill="#007FFF"></path>
                <polygon id="Fill-447" fill="#007FFF" points="441.006 66.1214 440.814 65.4204 426.173 65.4204 426.173 66.1214"></polygon>
                <polygon id="Fill-448" fill="#007FFF" points="455.912 66.1218 468.709 66.1218 468.709 65.4208 455.912 65.4208"></polygon>
                <polygon id="Fill-449" fill="#FFFFFF" points="54.3365 128.1992 50.9155 128.1992 50.9155 127.6372 54.3365 127.6372 54.3365 125.9942 58.0365 125.9942 58.0365 123.8002 54.3365 123.8002 54.3365 105.0652 45.9355 105.0652 45.9355 104.3642 54.3365 104.3642 54.3365 95.2892 60.2445 95.2892 60.2445 92.0522 54.3365 92.0522 54.3365 73.4912 51.1865 73.4912 51.1865 72.0902 54.3365 72.0902 54.3365 66.1212 55.2855 66.1212 55.2855 65.4212 54.3365 65.4212 54.3365 61.3672 40.3095 61.3672 40.3095 65.4212 41.2585 65.4212 41.2585 66.1212 40.3095 66.1212 40.3095 72.0902 37.1605 72.0902 37.1605 73.4912 40.3095 73.4912 40.3095 90.0092 24.4675 90.0092 24.4675 73.4912 21.3185 73.4912 21.3185 72.0902 24.4675 72.0902 24.4675 66.1212 25.4165 66.1212 25.4165 65.4212 24.4675 65.4212 24.4675 61.3672 10.4515 61.3672 10.4515 65.4212 11.3995 65.4212 11.3995 66.1212 10.4515 66.1212 10.4515 72.0902 7.3015 72.0902 7.3015 73.4912 10.4515 73.4912 10.4515 92.0522 16.3595 92.0522 16.3595 95.2892 10.4515 95.2892 10.4515 104.3642 2.0495 104.3642 2.0495 105.0652 10.4515 105.0652 10.4515 123.8002 14.1515 123.8002 14.1515 125.9942 10.4515 125.9942 10.4515 127.6372 7.0305 127.6372 7.0305 128.1992 10.4515 128.1992 10.4515 142.6472 16.9135 142.6472 16.9135 143.7712 10.4515 143.7712 10.4515 147.2382 24.4675 147.2382 24.4675 143.7712 30.9305 143.7712 30.9305 142.6472 24.4675 142.6472 24.4675 128.1992 21.0465 128.1992 21.0465 127.6372 24.4675 127.6372 24.4675 125.9942 28.1675 125.9942 28.1675 123.8002 24.4675 123.8002 24.4675 105.0652 16.0665 105.0652 16.0665 104.3642 24.4675 104.3642 24.4675 100.7372 40.3095 100.7372 40.3095 104.3642 31.9085 104.3642 31.9085 105.0652 40.3095 105.0652 40.3095 123.8002 44.0095 123.8002 44.0095 125.9942 40.3095 125.9942 40.3095 127.6372 36.8885 127.6372 36.8885 128.1992 40.3095 128.1992 40.3095 142.6472 46.7725 142.6472 46.7725 143.7712 40.3095 143.7712 40.3095 147.2382 54.3365 147.2382 54.3365 143.7712 60.7985 143.7712 60.7985 142.6472 54.3365 142.6472"></polygon>
                <path d="M158.792,135.295 L158.792,128.199 L155.371,128.199 L155.371,127.638 L158.792,127.638 L158.792,125.994 L162.492,125.994 L162.492,123.8 L158.792,123.8 L158.792,122.126 L144.646,122.126 L144.646,123.8 L148.346,123.8 L148.346,125.994 L144.646,125.994 L144.646,127.638 L141.225,127.638 L141.225,128.199 L144.646,128.199 L144.646,133.832 C144.646,135.131 144.408,136.004 143.922,136.451 C143.436,136.897 142.533,137.12 141.234,137.12 L135.51,137.12 C134.211,137.12 133.318,136.897 132.832,136.451 C132.336,136.004 132.098,135.131 132.098,133.832 L132.098,128.199 L128.677,128.199 L128.677,127.638 L132.098,127.638 L132.098,125.994 L135.798,125.994 L135.798,123.8 L132.098,123.8 L132.098,105.065 L123.696,105.065 L123.696,104.364 L132.098,104.364 L132.098,95.289 L138.006,95.289 L138.006,92.053 L132.098,92.053 L132.098,74.893 C132.098,74.335 132.163,73.893 132.253,73.491 L129.104,73.491 C129.222,72.96 129.4,72.528 129.682,72.274 C129.771,72.192 129.945,72.157 130.06,72.09 L133.21,72.09 C133.729,71.792 134.448,71.604 135.51,71.604 L141.234,71.604 C142.296,71.604 143.022,71.792 143.543,72.09 L140.393,72.09 C140.51,72.157 140.684,72.192 140.773,72.274 C141.05,72.528 141.224,72.96 141.342,73.491 L144.491,73.491 C144.58,73.893 144.646,74.335 144.646,74.893 L144.646,86.841 L158.792,86.841 L158.792,73.491 L155.642,73.491 L155.642,73.434 C155.642,72.922 155.467,72.569 155.431,72.09 L158.581,72.09 C158.4,69.671 157.712,67.711 156.616,66.122 L157.565,66.122 C157.406,65.892 157.28,65.633 157.102,65.421 L156.153,65.421 C153.98,62.818 150.538,61.367 145.499,61.367 L131.245,61.367 C126.206,61.367 122.764,62.818 120.591,65.421 L121.539,65.421 C121.361,65.633 121.235,65.892 121.076,66.122 L120.128,66.122 C119.032,67.711 118.345,69.671 118.163,72.09 L115.014,72.09 C114.978,72.569 114.803,72.922 114.803,73.434 L114.803,73.491 L117.952,73.491 L117.952,92.053 L123.86,92.053 L123.86,95.289 L117.952,95.289 L117.952,104.364 L109.551,104.364 L109.551,105.065 L117.952,105.065 L117.952,123.8 L121.652,123.8 L121.652,125.994 L117.952,125.994 L117.952,127.638 L114.531,127.638 L114.531,128.199 L117.952,128.199 L117.952,135.295 C117.952,138.412 118.823,140.738 120.154,142.647 L126.616,142.647 C126.871,143.014 127.054,143.448 127.359,143.771 L120.896,143.771 C123.1,146.1 126.478,147.362 131.245,147.362 L145.499,147.362 C150.266,147.362 153.644,146.1 155.848,143.771 L162.31,143.771 C162.615,143.448 162.797,143.014 163.053,142.647 L156.59,142.647 C157.921,140.738 158.792,138.412 158.792,135.295" id="Fill-450" fill="#FFFFFF"></path>
                <polygon id="Fill-451" fill="#FFFFFF" points="295.309 128.1992 291.888 128.1992 291.888 127.6372 295.309 127.6372 295.309 125.9942 299.009 125.9942 299.009 123.8002 295.309 123.8002 295.309 105.0652 286.908 105.0652 286.908 104.3642 295.309 104.3642 295.309 95.2892 301.217 95.2892 301.217 92.0522 295.309 92.0522 295.309 73.4912 292.159 73.4912 292.159 72.0902 308.84 72.0902 308.84 66.1212 309.788 66.1212 309.788 65.4212 308.84 65.4212 308.84 61.3672 267.881 61.3672 267.881 65.4212 268.829 65.4212 268.829 66.1212 267.881 66.1212 267.881 72.0902 278.143 72.0902 278.143 73.4912 281.292 73.4912 281.292 92.0522 287.2 92.0522 287.2 95.2892 281.292 95.2892 281.292 104.3642 272.891 104.3642 272.891 105.0652 281.292 105.0652 281.292 123.8002 284.992 123.8002 284.992 125.9942 281.292 125.9942 281.292 127.6372 277.871 127.6372 277.871 128.1992 281.292 128.1992 281.292 142.6472 287.754 142.6472 287.754 143.7712 281.292 143.7712 281.292 147.2382 295.309 147.2382 295.309 143.7712 301.771 143.7712 301.771 142.6472 295.309 142.6472"></polygon>
                <polygon id="Fill-452" fill="#FFFFFF" points="359.193 128.1992 355.772 128.1992 355.772 127.6372 359.193 127.6372 359.193 125.9942 362.893 125.9942 362.893 123.8002 359.193 123.8002 359.193 105.0652 350.792 105.0652 350.792 104.3642 359.193 104.3642 359.193 95.2892 365.101 95.2892 365.101 92.0522 359.193 92.0522 359.193 73.4912 356.043 73.4912 356.043 72.0902 359.193 72.0902 359.193 66.1212 360.142 66.1212 360.142 65.4212 359.193 65.4212 359.193 61.3672 345.166 61.3672 345.166 65.4212 346.115 65.4212 346.115 66.1212 345.166 66.1212 345.166 72.0902 342.017 72.0902 342.017 73.4912 345.166 73.4912 345.166 90.0092 329.324 90.0092 329.324 73.4912 326.175 73.4912 326.175 72.0902 329.324 72.0902 329.324 66.1212 330.273 66.1212 330.273 65.4212 329.324 65.4212 329.324 61.3672 315.308 61.3672 315.308 65.4212 316.256 65.4212 316.256 66.1212 315.308 66.1212 315.308 72.0902 312.158 72.0902 312.158 73.4912 315.308 73.4912 315.308 92.0522 321.216 92.0522 321.216 95.2892 315.308 95.2892 315.308 104.3642 306.906 104.3642 306.906 105.0652 315.308 105.0652 315.308 123.8002 319.008 123.8002 319.008 125.9942 315.308 125.9942 315.308 127.6372 311.887 127.6372 311.887 128.1992 315.308 128.1992 315.308 142.6472 321.77 142.6472 321.77 143.7712 315.308 143.7712 315.308 147.2382 329.324 147.2382 329.324 143.7712 335.787 143.7712 335.787 142.6472 329.324 142.6472 329.324 128.1992 325.903 128.1992 325.903 127.6372 329.324 127.6372 329.324 125.9942 333.025 125.9942 333.025 123.8002 329.324 123.8002 329.324 105.0652 320.923 105.0652 320.923 104.3642 329.324 104.3642 329.324 100.7372 345.166 100.7372 345.166 104.3642 336.765 104.3642 336.765 105.0652 345.166 105.0652 345.166 123.8002 348.866 123.8002 348.866 125.9942 345.166 125.9942 345.166 127.6372 341.745 127.6372 341.745 128.1992 345.166 128.1992 345.166 142.6472 351.629 142.6472 351.629 143.7712 345.166 143.7712 345.166 147.2382 359.193 147.2382 359.193 143.7712 365.655 143.7712 365.655 142.6472 359.193 142.6472"></polygon>
                <path d="M380.998,127.6375 L384.419,127.6375 L384.419,125.9935 L388.119,125.9935 L388.119,123.7995 L384.419,123.7995 L384.419,105.0645 L376.018,105.0645 L376.018,104.3645 L384.419,104.3645 L384.419,95.2885 L390.327,95.2885 L390.327,92.0525 L384.419,92.0525 L384.419,75.3835 C384.419,74.5625 384.551,73.9735 384.746,73.4915 L381.596,73.4915 C381.71,73.2115 381.821,72.9255 382.004,72.7595 C382.49,72.3185 383.422,72.0905 384.801,72.0905 L391.259,72.0905 C392.558,72.0905 393.461,72.3185 393.947,72.7595 C394.126,72.9255 394.235,73.2115 394.348,73.4915 L397.497,73.4915 C397.689,73.9735 397.821,74.5625 397.821,75.3835 L397.821,92.0525 L403.729,92.0525 L403.729,95.2885 L397.821,95.2885 L397.821,104.3645 L389.419,104.3645 L389.419,105.0645 L397.821,105.0645 L397.821,123.7995 L401.521,123.7995 L401.521,125.9935 L397.821,125.9935 L397.821,127.6375 L394.4,127.6375 L394.4,128.1995 L397.821,128.1995 L397.821,133.2215 C397.821,134.5215 397.583,135.3945 397.097,135.8405 C396.611,136.2865 395.708,136.5105 394.408,136.5105 L387.951,136.5105 C386.572,136.5105 385.639,136.2865 385.153,135.8405 C384.657,135.3945 384.419,134.5215 384.419,133.2215 L384.419,128.1995 L380.998,128.1995 L380.998,127.6375 Z M411.847,135.1705 L411.847,128.1995 L408.426,128.1995 L408.426,127.6375 L411.847,127.6375 L411.847,125.9935 L415.548,125.9935 L415.548,123.7995 L411.847,123.7995 L411.847,105.0645 L403.446,105.0645 L403.446,104.3645 L411.847,104.3645 L411.847,95.2885 L417.755,95.2885 L417.755,92.0525 L411.847,92.0525 L411.847,73.4915 L408.698,73.4915 L408.698,73.4345 C408.698,72.9225 408.522,72.5695 408.486,72.0905 L411.636,72.0905 C411.455,69.6705 410.767,67.7115 409.672,66.1215 L410.62,66.1215 C410.462,65.8915 410.335,65.6325 410.157,65.4205 L409.209,65.4205 C407.035,62.8185 403.594,61.3665 398.555,61.3665 L383.685,61.3665 C378.646,61.3665 375.208,62.8185 373.037,65.4205 L373.985,65.4205 C373.808,65.6325 373.681,65.8915 373.523,66.1215 L372.574,66.1215 C371.481,67.7115 370.794,69.6705 370.614,72.0905 L367.464,72.0905 C367.428,72.5695 367.253,72.9225 367.253,73.4345 L367.253,73.4915 L370.402,73.4915 L370.402,92.0525 L376.31,92.0525 L376.31,95.2885 L370.402,95.2885 L370.402,104.3645 L362.001,104.3645 L362.001,105.0645 L370.402,105.0645 L370.402,123.7995 L374.102,123.7995 L374.102,125.9935 L370.402,125.9935 L370.402,127.6375 L366.981,127.6375 L366.981,128.1995 L370.402,128.1995 L370.402,135.1705 C370.402,138.3535 371.297,140.7225 372.682,142.6465 L379.144,142.6465 C379.405,143.0085 379.576,143.4525 379.886,143.7705 L373.424,143.7705 C375.63,146.0295 378.991,147.2385 383.685,147.2385 L398.555,147.2385 C403.249,147.2385 406.613,146.0295 408.821,143.7705 L415.283,143.7705 C415.594,143.4525 415.765,143.0085 416.026,142.6465 L409.564,142.6465 C410.952,140.7225 411.847,138.3535 411.847,135.1705 L411.847,135.1705 Z" id="Fill-453" fill="#FFFFFF"></path>
                <path d="M73.5376,104.3644 L81.9366,104.3644 L82.0396,105.0654 L90.4406,105.0654 L92.7266,120.6634 L79.6816,120.6634 L81.8416,105.0654 L73.4406,105.0654 L73.5376,104.3644 Z M89.0086,95.2894 L90.3376,104.3644 L81.9386,104.3644 L83.1956,95.2894 L89.0086,95.2894 Z M86.0206,74.8924 L88.5346,92.0524 L83.6436,92.0524 L86.0206,74.8924 Z M94.9166,95.2894 L89.1036,95.2894 L89.5516,92.0524 L94.4426,92.0524 L94.9166,95.2894 Z M117.338,142.6464 L110.876,142.6464 L108.149,128.1994 L104.728,128.1994 L104.622,127.6374 L108.043,127.6374 L107.733,125.9944 L111.433,125.9944 L111.019,123.7994 L107.319,123.7994 L103.782,105.0654 L95.3806,105.0654 L95.2486,104.3644 L103.65,104.3644 L101.937,95.2894 L107.845,95.2894 L107.234,92.0524 L101.326,92.0524 L97.8216,73.4914 L94.6726,73.4914 L94.4086,72.0904 L97.5576,72.0904 L96.4316,66.1214 L97.3796,66.1214 L97.2476,65.4214 L96.2986,65.4214 L95.5336,61.3674 L76.6366,61.3674 L75.9056,65.4214 L76.8536,65.4214 L76.7276,66.1214 L75.7786,66.1214 L74.7026,72.0904 L71.5526,72.0904 L71.3006,73.4914 L74.4506,73.4914 L71.1026,92.0524 L77.0106,92.0524 L76.4276,95.2894 L70.5196,95.2894 L68.8826,104.3644 L60.4816,104.3644 L60.3546,105.0654 L68.7566,105.0654 L65.3776,123.7994 L69.0776,123.7994 L68.6826,125.9944 L64.9826,125.9944 L64.6856,127.6374 L61.2646,127.6374 L61.1636,128.1994 L64.5846,128.1994 L61.9796,142.6464 L68.4416,142.6464 L68.2396,143.7714 L61.7766,143.7714 L61.1516,147.2384 L75.1686,147.2384 L75.7526,143.7714 L82.2146,143.7714 L82.4036,142.6464 L75.9416,142.6464 L77.8566,131.2724 L94.6806,131.2724 L96.7576,142.6464 L103.221,142.6464 L103.426,143.7714 L96.9636,143.7714 L97.5966,147.2384 L111.743,147.2384 L111.088,143.7714 L117.55,143.7714 L117.338,142.6464 Z" id="Fill-454" fill="#FFFFFF"></path>
                <path d="M222.8,143.7709 L218.956,143.7709 L218.585,142.6469 L223.002,142.6469 L222.8,143.7709 Z M182.679,104.3639 L182.679,95.2889 L185.03,95.2889 L183.284,99.6379 L184.797,104.3639 L182.679,104.3639 Z M174.278,105.0649 L174.278,104.3639 L176.396,104.3639 L176.62,105.0649 L174.278,105.0649 Z M192.238,92.0529 L190.938,95.2889 L188.587,95.2889 L188.587,92.0529 L192.238,92.0529 Z M228.098,104.3639 L236.497,104.3639 L236.6,105.0649 L245.002,105.0649 L247.287,120.6629 L234.243,120.6629 L236.403,105.0649 L228.001,105.0649 L228.098,104.3639 Z M243.57,95.2889 L244.899,104.3639 L236.5,104.3639 L237.757,95.2889 L243.57,95.2889 Z M240.581,74.8929 L243.095,92.0529 L238.205,92.0529 L240.581,74.8929 Z M249.478,95.2889 L243.665,95.2889 L244.113,92.0529 L249.003,92.0529 L249.478,95.2889 Z M271.899,142.6469 L265.437,142.6469 L262.709,128.1989 L259.288,128.1989 L259.182,127.6379 L262.603,127.6379 L262.293,125.9939 L265.993,125.9939 L265.579,123.7999 L261.879,123.7999 L258.343,105.0649 L249.941,105.0649 L249.809,104.3639 L258.211,104.3639 L256.498,95.2889 L262.406,95.2889 L261.794,92.0529 L255.886,92.0529 L252.383,73.4909 L249.233,73.4909 L248.969,72.0899 L252.119,72.0899 L250.992,66.1219 L251.941,66.1219 L251.808,65.4209 L250.859,65.4209 L250.094,61.3669 L231.197,61.3669 L230.466,65.4209 L231.415,65.4209 L231.288,66.1219 L230.34,66.1219 L229.263,72.0899 L226.114,72.0899 L225.861,73.4909 L229.011,73.4909 L225.664,92.0529 L231.572,92.0529 L230.988,95.2889 L225.08,95.2889 L223.444,104.3639 L215.042,104.3639 L214.916,105.0649 L223.317,105.0649 L219.939,123.7999 L223.639,123.7999 L223.243,125.9939 L219.543,125.9939 L219.247,127.6379 L215.826,127.6379 L215.725,128.1989 L219.146,128.1989 L216.54,142.6469 L212.123,142.6469 L207.35,128.1989 L203.929,128.1989 L203.743,127.6379 L207.164,127.6379 L206.622,125.9939 L210.322,125.9939 L209.597,123.7999 L205.897,123.7999 L199.709,105.0649 L191.308,105.0649 L191.076,104.3639 L199.477,104.3639 L197.916,99.6379 L199.716,95.2889 L205.624,95.2889 L206.964,92.0529 L201.056,92.0529 L208.739,73.4909 L205.59,73.4909 L206.169,72.0899 L209.319,72.0899 L211.79,66.1219 L212.738,66.1219 L213.028,65.4209 L212.08,65.4209 L213.758,61.3669 L198.65,61.3669 L197.023,65.4209 L197.971,65.4209 L197.69,66.1219 L196.741,66.1219 L194.345,72.0899 L191.195,72.0899 L190.632,73.4909 L193.782,73.4909 L186.33,92.0529 L182.679,92.0529 L182.679,73.4909 L179.53,73.4909 L179.53,72.0899 L182.679,72.0899 L182.679,66.1219 L183.628,66.1219 L183.628,65.4209 L182.679,65.4209 L182.679,61.3669 L168.663,61.3669 L168.663,65.4209 L169.611,65.4209 L169.611,66.1219 L168.663,66.1219 L168.663,72.0899 L165.513,72.0899 L165.513,73.4909 L168.663,73.4909 L168.663,92.0529 L174.57,92.0529 L174.57,95.2889 L168.663,95.2889 L168.663,104.3639 L160.261,104.3639 L160.261,105.0649 L168.663,105.0649 L168.663,123.7999 L172.363,123.7999 L172.363,125.9939 L168.663,125.9939 L168.663,127.6379 L165.241,127.6379 L165.241,128.1989 L168.663,128.1989 L168.663,142.6469 L175.125,142.6469 L175.125,143.7709 L168.663,143.7709 L168.663,147.2389 L182.679,147.2389 L182.679,143.7709 L189.141,143.7709 L189.141,142.6469 L182.679,142.6469 L182.679,128.1989 L179.258,128.1989 L179.258,127.6379 L182.679,127.6379 L182.679,125.9939 L186.379,125.9939 L186.379,123.7999 L182.679,123.7999 L182.679,105.0649 L185.022,105.0649 L191.019,123.7999 L194.719,123.7999 L195.421,125.9939 L191.721,125.9939 L192.247,127.6379 L188.826,127.6379 L189.006,128.1989 L192.427,128.1989 L197.051,142.6469 L203.513,142.6469 L203.874,143.7709 L197.411,143.7709 L198.521,147.2389 L213.639,147.2389 L212.494,143.7709 L216.338,143.7709 L215.712,147.2389 L229.729,147.2389 L230.313,143.7709 L236.775,143.7709 L236.964,142.6469 L230.502,142.6469 L232.417,131.2729 L249.241,131.2729 L251.319,142.6469 L257.781,142.6469 L257.986,143.7709 L251.524,143.7709 L252.158,147.2389 L266.303,147.2389 L265.649,143.7709 L272.111,143.7709 L271.899,142.6469 Z" id="Fill-455" fill="#FFFFFF"></path>
                <path d="M448.675,105.0649 L452.915,105.0649 L452.915,120.5439 L448.675,105.0649 Z M441.999,95.2889 L441.999,92.0529 L443.297,92.0529 L444.186,95.2889 L441.999,95.2889 Z M436.091,92.0529 L436.091,87.3269 L437.389,92.0529 L436.091,92.0529 Z M432.562,105.0649 L427.69,105.0649 L427.69,104.3639 L432.369,104.3639 L432.562,105.0649 Z M465.712,142.6469 L465.712,128.1989 L462.291,128.1989 L462.291,127.6379 L465.712,127.6379 L465.712,125.9939 L469.412,125.9939 L469.412,123.7999 L465.712,123.7999 L465.712,105.0649 L457.31,105.0649 L457.31,104.3639 L465.712,104.3639 L465.712,95.2889 L471.62,95.2889 L471.62,92.0529 L465.712,92.0529 L465.712,73.4909 L462.562,73.4909 L462.562,72.0899 L465.712,72.0899 L465.712,66.1219 L466.66,66.1219 L466.66,65.4209 L465.712,65.4209 L465.712,61.3669 L452.915,61.3669 L452.915,65.4209 L453.864,65.4209 L453.864,66.1219 L452.915,66.1219 L452.915,72.0899 L449.766,72.0899 L449.766,73.4909 L452.915,73.4909 L452.915,92.0529 L458.823,92.0529 L458.823,95.2889 L452.915,95.2889 L452.915,104.3639 L448.483,104.3639 L445.997,95.2889 L451.905,95.2889 L451.019,92.0529 L445.111,92.0529 L440.027,73.4909 L436.877,73.4909 L436.493,72.0899 L439.643,72.0899 L438.009,66.1219 L438.957,66.1219 L438.765,65.4209 L437.816,65.4209 L436.706,61.3669 L423.175,61.3669 L423.175,65.4209 L424.124,65.4209 L424.124,66.1219 L423.175,66.1219 L423.175,72.0899 L420.026,72.0899 L420.026,73.4909 L423.175,73.4909 L423.175,92.0529 L429.083,92.0529 L429.083,95.2889 L423.175,95.2889 L423.175,104.3639 L414.774,104.3639 L414.774,105.0649 L423.175,105.0649 L423.175,123.7999 L426.876,123.7999 L426.876,125.9939 L423.175,125.9939 L423.175,127.6379 L419.754,127.6379 L419.754,128.1989 L423.175,128.1989 L423.175,142.6469 L429.638,142.6469 L429.638,143.7709 L423.175,143.7709 L423.175,147.2389 L436.091,147.2389 L436.091,143.7709 L442.553,143.7709 L442.553,142.6469 L436.091,142.6469 L436.091,128.1989 L432.67,128.1989 L432.67,127.6379 L436.091,127.6379 L436.091,125.9939 L439.791,125.9939 L439.791,123.7999 L436.091,123.7999 L436.091,105.0649 L440.274,105.0649 L440.082,104.3639 L436.091,104.3639 L436.091,95.2889 L438.278,95.2889 L440.771,104.3639 L444.514,104.3639 L444.514,105.0649 L440.964,105.0649 L446.11,123.7999 L449.81,123.7999 L450.413,125.9939 L446.713,125.9939 L447.164,127.6379 L443.743,127.6379 L443.897,128.1989 L447.318,128.1989 L451.287,142.6469 L457.749,142.6469 L458.058,143.7709 L451.596,143.7709 L452.548,147.2389 L465.712,147.2389 L465.712,143.7709 L472.174,143.7709 L472.174,142.6469 L465.712,142.6469 Z" id="Fill-456" fill="#FFFFFF"></path>
            </g>
        </g>
    </g>
</svg>